<svg id="svg" version="1.1" xmlns="http://www.w3.org/2000/svg" xmlns:xlink="http://www.w3.org/1999/xlink" width="400" height="137.79697624190067" viewBox="0, 0, 400,137.79697624190067"><g id="svgg"><path id="path0" d="M312.833 48.498 C 312.421 48.577,311.774 48.648,311.396 48.654 C 311.018 48.661,310.118 48.854,309.396 49.083 C 308.674 49.312,307.783 49.586,307.417 49.693 C 306.809 49.870,305.496 50.517,303.750 51.499 C 302.833 52.014,300.204 54.147,299.498 54.948 C 298.184 56.438,297.282 57.639,296.769 58.583 C 296.470 59.133,296.032 59.929,295.796 60.351 C 293.944 63.663,293.121 71.556,294.319 74.529 C 294.404 74.742,294.675 75.554,294.921 76.333 C 295.319 77.597,295.800 78.620,296.987 80.728 C 298.155 82.803,301.778 86.314,303.987 87.511 C 304.590 87.838,305.421 88.293,305.833 88.521 C 306.246 88.749,307.146 89.110,307.833 89.322 C 308.521 89.534,309.383 89.805,309.750 89.923 C 312.017 90.656,317.507 90.696,319.750 89.996 C 322.360 89.181,323.143 88.881,324.638 88.123 C 327.648 86.597,331.337 83.226,332.771 80.691 C 334.272 78.037,334.467 77.592,335.260 75.000 C 336.486 70.993,335.987 64.390,334.191 60.833 C 333.081 58.637,332.629 57.906,331.511 56.500 C 328.440 52.637,325.121 50.466,320.000 48.968 C 318.598 48.558,314.066 48.260,312.833 48.498 M178.000 54.375 C 176.756 55.224,176.826 54.230,176.874 70.166 L 176.917 84.417 179.417 84.417 L 181.917 84.417 181.960 75.613 C 181.999 67.568,182.026 66.814,182.275 66.863 C 182.480 66.903,185.500 71.815,185.500 72.107 C 185.500 72.137,185.800 72.651,186.167 73.250 C 186.533 73.849,186.833 74.369,186.833 74.406 C 186.833 74.442,187.158 75.022,187.555 75.695 C 188.204 76.792,188.713 77.692,189.709 79.500 C 189.886 79.821,190.235 80.421,190.486 80.833 C 190.737 81.246,191.300 82.191,191.739 82.933 C 192.660 84.494,193.124 84.833,194.333 84.833 C 195.745 84.833,196.182 84.435,197.622 81.833 C 198.804 79.700,199.133 79.119,199.778 78.028 C 200.175 77.356,200.500 76.771,200.500 76.728 C 200.500 76.686,200.751 76.258,201.059 75.777 C 201.366 75.297,201.866 74.457,202.169 73.910 C 202.473 73.364,202.847 72.692,203.000 72.417 C 203.153 72.142,203.529 71.467,203.834 70.917 C 204.139 70.367,204.699 69.392,205.078 68.750 C 205.457 68.108,205.815 67.457,205.874 67.303 C 205.971 67.049,206.612 66.586,206.705 66.702 C 206.726 66.729,206.782 70.725,206.830 75.583 L 206.917 84.417 209.417 84.417 L 211.917 84.417 211.959 70.287 C 212.001 56.451,211.995 56.144,211.669 55.505 C 210.649 53.505,208.354 53.449,207.017 55.392 C 206.732 55.805,206.500 56.185,206.500 56.235 C 206.500 56.286,206.200 56.818,205.833 57.417 C 205.467 58.016,205.167 58.534,205.167 58.569 C 205.167 58.603,204.469 59.823,203.615 61.279 C 202.762 62.734,202.009 64.036,201.942 64.171 C 201.875 64.306,201.729 64.567,201.617 64.750 C 201.505 64.933,200.814 66.127,200.081 67.403 C 199.349 68.679,198.585 69.992,198.384 70.320 C 198.182 70.648,197.915 71.104,197.790 71.333 C 196.973 72.827,196.439 73.773,196.329 73.917 C 196.259 74.008,195.994 74.458,195.741 74.917 C 194.377 77.384,194.337 77.404,193.536 76.000 C 193.353 75.679,192.810 74.742,192.329 73.917 C 191.847 73.092,191.267 72.079,191.038 71.667 C 190.809 71.254,190.567 70.842,190.500 70.750 C 190.433 70.658,190.189 70.246,189.958 69.833 C 189.727 69.421,188.885 67.958,188.086 66.583 C 187.288 65.208,186.457 63.768,186.242 63.383 C 186.026 62.998,185.167 61.513,184.333 60.083 C 182.985 57.771,182.367 56.688,181.765 55.583 C 180.942 54.073,179.242 53.527,178.000 54.375 M61.276 54.458 C 61.234 54.527,61.309 55.183,61.443 55.917 C 61.577 56.650,61.755 57.700,61.839 58.250 C 61.922 58.800,62.109 59.850,62.253 60.583 C 62.509 61.877,62.629 62.567,62.994 64.833 C 63.090 65.429,63.243 66.134,63.334 66.400 C 63.425 66.666,63.500 67.123,63.500 67.417 C 63.500 67.710,63.568 68.168,63.651 68.433 C 63.733 68.699,63.923 69.629,64.071 70.500 C 64.219 71.371,64.410 72.458,64.494 72.917 C 64.579 73.375,64.770 74.425,64.919 75.250 C 65.068 76.075,65.230 76.938,65.280 77.167 C 65.330 77.396,65.429 77.996,65.501 78.500 C 65.573 79.004,65.760 80.054,65.917 80.833 C 66.074 81.612,66.251 82.513,66.310 82.834 C 66.528 84.024,67.533 84.833,68.793 84.833 C 70.061 84.833,70.539 84.406,72.052 81.914 C 72.775 80.724,74.424 78.025,75.715 75.917 C 77.007 73.808,78.640 71.135,79.343 69.977 C 81.027 67.203,81.073 67.141,81.376 67.257 C 81.628 67.354,83.167 69.702,83.167 69.991 C 83.167 70.072,83.225 70.164,83.297 70.194 C 83.403 70.240,86.886 75.854,87.570 77.083 C 87.672 77.267,87.876 77.604,88.022 77.833 C 89.016 79.386,90.500 81.833,90.500 81.919 C 90.500 81.976,90.688 82.268,90.917 82.569 C 91.146 82.869,91.336 83.183,91.339 83.266 C 91.362 83.904,92.842 84.832,93.836 84.833 C 95.285 84.834,96.211 83.804,96.506 81.860 C 96.585 81.341,96.733 80.467,96.834 79.917 C 97.334 77.203,97.519 76.167,97.667 75.250 C 97.757 74.700,97.947 73.650,98.090 72.917 C 98.233 72.183,98.414 71.171,98.492 70.667 C 98.570 70.162,98.759 69.150,98.913 68.417 C 99.067 67.683,99.256 66.633,99.334 66.083 C 99.411 65.533,99.600 64.446,99.755 63.667 C 99.909 62.887,100.066 62.025,100.105 61.750 C 100.144 61.475,100.246 60.875,100.331 60.417 C 100.416 59.958,100.606 58.908,100.752 58.083 C 100.899 57.258,101.100 56.196,101.199 55.722 C 101.498 54.298,101.535 54.318,98.712 54.371 L 96.250 54.417 96.048 55.333 C 95.937 55.837,95.773 56.663,95.683 57.167 C 95.594 57.671,95.405 58.683,95.264 59.417 C 95.123 60.150,94.966 61.012,94.915 61.333 C 94.864 61.654,94.744 62.400,94.650 62.990 C 94.555 63.581,94.408 64.195,94.322 64.354 C 94.237 64.514,94.167 64.911,94.167 65.237 C 94.167 65.562,94.093 66.148,94.004 66.539 C 93.743 67.678,93.486 69.013,93.338 70.000 C 92.968 72.458,92.812 73.227,92.568 73.797 L 92.303 74.417 91.943 73.950 C 91.745 73.693,91.433 73.232,91.250 72.925 C 91.067 72.617,90.335 71.455,89.625 70.341 C 88.915 69.227,88.333 68.254,88.333 68.178 C 88.333 68.103,88.228 67.953,88.099 67.846 C 87.970 67.739,87.743 67.411,87.594 67.117 C 87.278 66.493,86.954 65.951,86.826 65.833 C 86.776 65.787,86.297 65.037,85.763 64.167 C 85.228 63.296,84.650 62.380,84.479 62.132 C 84.307 61.883,84.167 61.642,84.167 61.595 C 84.167 61.315,83.007 59.939,82.539 59.662 C 81.005 58.757,79.740 59.441,78.169 62.024 C 77.592 62.973,76.849 64.163,76.518 64.668 C 76.187 65.172,75.827 65.735,75.718 65.918 C 74.055 68.696,70.555 74.048,70.319 74.175 C 69.968 74.362,70.017 74.501,69.583 72.083 C 69.435 71.258,69.239 70.171,69.147 69.667 C 68.849 68.029,68.685 67.110,68.417 65.583 C 68.273 64.758,68.082 63.764,67.994 63.373 C 67.906 62.982,67.833 62.443,67.833 62.175 C 67.833 61.907,67.753 61.478,67.655 61.220 C 67.557 60.963,67.405 60.264,67.317 59.668 C 67.004 57.559,66.855 56.744,66.679 56.168 C 66.580 55.848,66.500 55.349,66.500 55.061 C 66.500 54.736,66.400 54.497,66.236 54.434 C 65.855 54.288,61.367 54.310,61.276 54.458 M119.250 54.412 C 119.158 54.441,118.521 54.555,117.833 54.666 C 112.724 55.493,107.472 59.908,106.434 64.250 C 106.368 64.525,106.192 65.237,106.042 65.833 C 105.811 66.752,105.761 68.256,105.714 75.713 L 105.658 84.509 108.204 84.463 L 110.750 84.417 110.795 80.841 C 110.828 78.236,110.896 77.230,111.045 77.135 C 111.284 76.984,130.011 76.951,130.403 77.101 C 130.632 77.189,130.667 77.678,130.667 80.856 L 130.667 84.509 133.208 84.463 L 135.750 84.417 135.793 70.352 L 135.835 56.288 135.390 55.583 C 134.607 54.347,134.483 54.330,126.417 54.346 C 122.567 54.353,119.342 54.383,119.250 54.412 M141.444 54.444 C 141.118 54.771,141.331 66.749,141.680 67.669 C 141.871 68.172,142.077 68.746,142.139 68.945 C 142.560 70.309,144.714 72.441,146.546 73.307 C 148.459 74.211,149.762 74.490,152.092 74.497 C 153.764 74.501,153.667 74.180,153.667 79.704 L 153.667 84.509 156.208 84.463 L 158.750 84.417 158.793 79.667 C 158.842 74.164,158.726 74.502,160.574 74.497 C 163.353 74.489,165.100 74.012,167.149 72.701 C 168.069 72.112,169.667 70.613,169.667 70.339 C 169.667 70.257,169.763 70.091,169.881 69.970 C 171.040 68.776,171.365 66.481,171.302 59.917 L 171.250 54.417 168.792 54.371 L 166.333 54.324 166.333 59.632 C 166.333 69.157,166.234 69.250,156.083 69.250 C 148.543 69.250,148.148 69.145,146.945 66.827 L 146.500 65.969 146.500 60.415 C 146.500 57.360,146.454 54.742,146.399 54.597 C 146.294 54.323,141.707 54.182,141.444 54.444 M231.250 54.508 C 230.883 54.581,230.246 54.690,229.833 54.750 C 229.421 54.810,228.933 54.920,228.750 54.995 C 228.567 55.070,228.042 55.264,227.583 55.426 C 223.471 56.882,220.164 60.388,218.946 64.583 C 218.786 65.133,218.583 65.814,218.495 66.095 C 218.399 66.398,218.333 70.254,218.333 75.553 L 218.333 84.500 220.833 84.500 L 223.333 84.500 223.333 81.072 C 223.333 79.028,223.403 77.515,223.506 77.322 C 223.706 76.948,242.325 76.805,243.011 77.173 C 243.314 77.335,243.333 77.556,243.333 80.923 L 243.333 84.500 245.833 84.500 L 248.333 84.500 248.333 70.367 L 248.333 56.233 247.900 55.566 C 247.099 54.329,247.109 54.331,239.041 54.354 C 235.122 54.366,231.617 54.435,231.250 54.508 M252.782 54.440 C 252.683 54.539,253.221 55.299,253.945 56.083 C 254.114 56.267,254.665 56.904,255.168 57.500 C 255.671 58.096,256.121 58.621,256.167 58.667 C 256.212 58.712,256.700 59.275,257.249 59.917 C 257.799 60.558,258.324 61.167,258.416 61.268 C 258.756 61.644,259.439 62.444,260.250 63.417 C 260.708 63.967,261.121 64.454,261.167 64.500 C 261.268 64.601,262.129 65.597,263.250 66.909 C 263.708 67.446,264.256 68.079,264.468 68.317 C 265.356 69.316,265.383 69.546,264.709 70.353 C 263.866 71.362,261.270 74.398,261.163 74.500 C 261.115 74.546,260.180 75.633,259.085 76.917 C 257.990 78.200,257.052 79.287,257.001 79.333 C 256.949 79.379,256.311 80.129,255.583 81.000 C 254.855 81.871,254.218 82.621,254.168 82.667 C 253.857 82.949,252.833 84.250,252.833 84.363 C 252.833 84.438,254.362 84.500,256.230 84.500 L 259.626 84.500 260.438 83.542 C 260.884 83.015,261.446 82.358,261.686 82.083 C 261.926 81.808,263.050 80.496,264.184 79.167 C 265.317 77.837,266.284 76.712,266.332 76.667 C 266.410 76.591,267.634 75.156,268.427 74.208 C 268.910 73.631,269.022 73.704,270.751 75.708 C 271.641 76.740,272.762 78.033,273.243 78.583 C 273.724 79.133,275.070 80.690,276.235 82.042 L 278.353 84.500 281.760 84.500 C 283.634 84.500,285.167 84.453,285.167 84.395 C 285.167 84.300,283.308 82.056,282.560 81.248 C 282.390 81.064,281.965 80.560,281.617 80.127 C 281.269 79.695,280.879 79.236,280.750 79.108 C 280.622 78.979,279.978 78.246,279.320 77.478 C 278.662 76.711,277.768 75.671,277.333 75.167 C 276.899 74.662,275.964 73.575,275.257 72.750 C 274.550 71.925,273.677 70.916,273.319 70.508 C 272.545 69.628,272.522 69.416,273.125 68.728 C 273.377 68.441,273.958 67.766,274.416 67.228 C 274.873 66.690,275.773 65.646,276.416 64.908 C 278.300 62.742,279.252 61.639,280.025 60.727 C 281.248 59.282,284.105 55.954,284.723 55.255 C 285.536 54.334,285.534 54.333,281.849 54.333 C 278.233 54.333,278.401 54.291,277.494 55.434 C 277.112 55.917,273.191 60.482,273.000 60.667 C 272.953 60.712,272.503 61.237,271.999 61.832 C 269.693 64.555,269.063 65.218,268.855 65.140 C 268.773 65.109,268.162 64.446,267.497 63.667 C 266.833 62.887,266.092 62.025,265.851 61.750 C 265.610 61.475,264.118 59.739,262.536 57.892 C 260.955 56.045,259.543 54.488,259.400 54.433 C 259.049 54.299,252.917 54.305,252.782 54.440 M318.300 56.567 C 319.448 57.163,319.570 57.582,319.664 61.250 L 319.750 64.583 323.000 64.667 C 327.930 64.793,328.083 64.939,328.083 69.513 L 328.083 72.443 327.618 73.053 C 326.864 74.042,326.725 74.076,323.083 74.167 L 319.750 74.250 319.666 77.597 C 319.544 82.449,319.337 82.667,314.842 82.667 C 310.374 82.667,310.167 82.434,310.167 77.416 C 310.167 73.895,310.520 74.211,306.500 74.140 C 301.778 74.058,301.667 73.948,301.667 69.374 C 301.667 64.959,301.863 64.774,306.662 64.696 C 310.584 64.632,310.161 65.064,310.164 61.120 C 310.168 56.518,310.343 56.338,314.800 56.335 C 317.095 56.334,317.961 56.391,318.300 56.567 M130.627 65.583 C 130.668 71.076,130.647 71.601,130.387 71.792 C 130.017 72.063,111.659 72.097,111.156 71.827 C 110.779 71.626,110.680 68.382,111.011 67.103 C 111.931 63.548,113.506 61.645,116.500 60.466 C 118.780 59.568,119.158 59.528,125.083 59.557 L 130.583 59.583 130.627 65.583 M243.071 59.762 C 243.526 60.216,243.460 71.207,243.000 71.667 C 242.628 72.039,224.236 72.199,223.667 71.835 C 223.313 71.609,223.383 67.308,223.759 66.192 C 224.780 63.158,228.078 60.014,230.258 59.997 C 230.437 59.996,230.921 59.889,231.333 59.759 C 232.501 59.391,242.703 59.394,243.071 59.762 " stroke="none" fill="#e6e6e6" fill-rule="evenodd"></path><path id="path1" d="M0.000 68.833 L 0.000 137.667 200.000 137.667 L 400.000 137.667 400.000 68.833 L 400.000 0.000 200.000 0.000 L 0.000 0.000 0.000 68.833 M318.917 48.398 C 322.550 49.120,325.593 50.549,328.417 52.859 C 330.123 54.255,332.484 56.925,333.257 58.333 C 334.347 60.317,334.819 61.351,335.162 62.500 C 335.367 63.188,335.603 63.938,335.686 64.167 C 336.483 66.359,336.462 73.932,335.657 74.742 C 335.571 74.829,335.500 75.041,335.500 75.214 C 335.500 75.550,334.706 77.973,334.505 78.250 C 334.438 78.342,334.064 79.017,333.674 79.750 C 333.283 80.483,332.769 81.346,332.531 81.667 C 331.343 83.266,329.861 84.893,328.941 85.608 C 328.378 86.046,327.879 86.448,327.833 86.502 C 327.621 86.753,326.490 87.509,325.583 88.006 C 325.033 88.308,324.343 88.689,324.050 88.853 C 323.363 89.238,321.156 90.000,320.729 90.000 C 320.548 90.000,320.327 90.073,320.237 90.163 C 319.482 90.918,310.363 90.930,309.610 90.177 C 309.513 90.080,309.279 90.000,309.090 90.000 C 305.898 90.000,298.757 84.626,296.467 80.499 C 295.564 78.873,294.667 77.037,294.663 76.807 C 294.660 76.684,294.507 76.133,294.321 75.583 C 293.268 72.462,293.156 66.922,294.088 64.000 C 294.814 61.720,295.215 60.565,295.331 60.417 C 295.403 60.325,295.783 59.650,296.177 58.917 C 296.570 58.183,296.935 57.546,296.988 57.500 C 297.042 57.454,297.306 57.117,297.577 56.750 C 298.998 54.821,301.726 52.277,303.333 51.380 C 303.654 51.201,304.367 50.807,304.917 50.505 C 305.467 50.203,305.992 49.903,306.083 49.839 C 306.318 49.675,307.084 49.406,308.250 49.080 C 308.800 48.926,309.400 48.736,309.583 48.658 C 309.767 48.580,310.479 48.437,311.167 48.342 C 311.854 48.246,312.604 48.135,312.833 48.095 C 313.610 47.959,317.744 48.165,318.917 48.398 M180.367 53.840 C 181.052 54.030,181.876 54.888,182.471 56.031 C 182.677 56.426,182.916 56.862,183.002 57.000 C 183.412 57.655,185.100 60.614,185.901 62.083 C 186.001 62.267,186.124 62.454,186.174 62.500 C 186.269 62.588,188.294 66.115,189.710 68.660 C 189.988 69.161,190.467 69.964,190.775 70.444 C 191.082 70.924,191.333 71.352,191.333 71.395 C 191.333 71.438,191.658 72.022,192.055 72.695 C 192.453 73.367,193.026 74.367,193.330 74.917 C 194.166 76.431,194.258 76.544,194.453 76.295 C 194.677 76.010,196.833 72.326,196.833 72.228 C 196.833 72.186,197.082 71.761,197.385 71.284 C 197.689 70.807,197.989 70.304,198.053 70.167 C 198.117 70.029,198.306 69.692,198.474 69.417 C 198.641 69.142,198.968 68.579,199.199 68.167 C 199.431 67.754,200.006 66.750,200.477 65.934 C 200.948 65.119,201.333 64.425,201.333 64.391 C 201.333 64.357,201.708 63.731,202.167 63.000 C 202.625 62.269,203.000 61.638,203.000 61.599 C 203.000 61.560,203.325 60.978,203.722 60.305 C 204.119 59.633,204.693 58.633,204.997 58.083 C 205.301 57.533,205.599 57.046,205.659 57.000 C 205.718 56.954,205.900 56.654,206.063 56.333 C 206.922 54.634,207.438 54.074,208.377 53.822 C 210.110 53.355,211.818 54.231,212.175 55.770 C 212.362 56.574,212.379 84.337,212.193 84.629 C 212.091 84.791,211.383 84.831,209.238 84.796 L 206.417 84.750 206.373 76.208 C 206.346 70.706,206.272 67.667,206.165 67.667 C 206.074 67.667,206.000 67.736,206.000 67.820 C 206.000 67.904,205.550 68.735,205.000 69.667 C 204.450 70.598,204.000 71.395,204.000 71.438 C 204.000 71.481,203.755 71.906,203.455 72.383 C 203.155 72.860,202.819 73.438,202.708 73.667 C 202.598 73.896,202.323 74.383,202.098 74.750 C 201.872 75.117,201.543 75.679,201.367 76.000 C 200.807 77.015,200.315 77.884,199.667 79.000 C 199.030 80.097,198.829 80.453,197.834 82.250 C 196.396 84.849,196.019 85.165,194.353 85.166 C 192.697 85.167,192.250 84.778,190.711 82.000 C 190.533 81.679,190.141 80.967,189.838 80.417 C 189.536 79.867,189.232 79.342,189.162 79.250 C 189.093 79.158,188.876 78.797,188.681 78.447 C 188.485 78.096,187.777 76.859,187.107 75.697 C 185.961 73.709,185.342 72.609,184.367 70.833 C 184.141 70.421,183.898 70.008,183.828 69.917 C 183.702 69.751,182.970 68.458,182.554 67.667 C 182.371 67.318,182.335 68.635,182.334 75.778 C 182.334 80.468,182.288 84.425,182.232 84.570 C 182.080 84.966,176.587 84.966,176.434 84.570 C 176.128 83.771,176.333 55.986,176.650 55.368 C 177.396 53.915,178.703 53.378,180.367 53.840 M66.595 54.186 C 66.753 54.441,66.987 55.399,67.160 56.500 C 67.239 57.004,67.428 58.054,67.580 58.833 C 67.733 59.612,67.919 60.625,67.995 61.083 C 68.071 61.542,68.257 62.554,68.409 63.333 C 68.712 64.892,68.962 66.306,69.160 67.583 C 69.281 68.365,69.466 69.285,69.841 70.961 C 69.928 71.352,70.000 71.938,70.000 72.263 C 70.000 72.589,70.078 73.000,70.173 73.178 C 70.359 73.526,70.667 73.614,70.667 73.319 C 70.667 73.219,70.880 72.826,71.140 72.444 C 71.400 72.062,71.802 71.450,72.034 71.083 C 72.883 69.739,74.088 67.806,74.250 67.529 C 74.342 67.372,74.585 67.008,74.792 66.721 C 74.998 66.434,75.167 66.142,75.167 66.073 C 75.167 66.004,75.354 65.702,75.583 65.402 C 75.813 65.101,76.000 64.815,76.000 64.766 C 76.000 64.717,76.216 64.355,76.479 63.963 C 76.743 63.571,77.188 62.875,77.468 62.417 C 79.306 59.412,79.687 59.083,81.331 59.084 C 83.047 59.084,83.026 59.059,87.824 66.728 C 90.154 70.453,92.107 73.500,92.165 73.500 C 92.223 73.500,92.401 72.806,92.562 71.958 C 92.723 71.110,92.920 70.117,92.998 69.750 C 93.077 69.383,93.230 68.521,93.339 67.833 C 93.447 67.146,93.640 66.146,93.768 65.612 C 93.896 65.077,94.000 64.459,94.000 64.239 C 94.000 64.018,94.073 63.518,94.163 63.127 C 94.408 62.058,94.674 60.692,94.837 59.667 C 94.917 59.163,95.067 58.229,95.169 57.593 C 95.272 56.957,95.426 56.305,95.511 56.146 C 95.597 55.986,95.667 55.515,95.667 55.100 C 95.667 54.059,95.839 54.000,98.885 54.000 C 101.527 54.000,101.968 54.106,101.755 54.687 C 101.708 54.813,101.589 55.442,101.488 56.083 C 101.196 57.958,100.515 61.852,100.178 63.583 C 100.088 64.042,99.893 65.129,99.743 66.000 C 99.593 66.871,99.409 67.846,99.334 68.167 C 99.258 68.487,99.108 69.275,99.000 69.917 C 98.892 70.558,98.735 71.477,98.652 71.958 C 98.568 72.440,98.437 73.227,98.360 73.708 C 98.283 74.190,98.127 75.071,98.014 75.667 C 97.900 76.262,97.742 77.125,97.662 77.583 C 97.582 78.042,97.405 79.017,97.269 79.750 C 97.133 80.483,96.925 81.603,96.808 82.238 C 96.434 84.255,95.494 85.167,93.787 85.167 C 92.199 85.167,91.956 84.935,89.697 81.280 C 86.680 76.396,84.270 72.457,84.070 72.085 C 83.356 70.753,81.436 67.835,81.278 67.841 C 81.121 67.847,79.043 71.111,77.083 74.428 C 76.900 74.738,76.368 75.613,75.902 76.371 C 75.436 77.130,74.210 79.137,73.178 80.833 C 70.657 84.977,70.461 85.167,68.714 85.167 C 66.961 85.167,66.037 84.133,65.658 81.750 C 65.379 79.993,65.214 79.059,64.908 77.500 C 64.755 76.721,64.571 75.708,64.500 75.250 C 64.428 74.792,64.242 73.742,64.086 72.917 C 63.812 71.471,63.750 71.113,63.347 68.606 C 63.245 67.976,63.123 67.398,63.076 67.321 C 63.028 67.244,62.919 66.708,62.834 66.132 C 62.555 64.241,62.432 63.549,61.837 60.500 C 61.757 60.087,61.569 59.038,61.419 58.167 C 61.269 57.296,61.076 56.269,60.990 55.885 C 60.807 55.068,60.786 54.269,60.944 54.111 C 61.144 53.912,66.470 53.983,66.595 54.186 M134.931 54.592 C 136.340 55.732,136.244 54.633,136.296 70.294 C 136.328 79.961,136.288 84.273,136.163 84.506 C 135.993 84.824,135.842 84.839,133.200 84.796 L 130.417 84.750 130.333 81.083 L 130.250 77.417 120.750 77.417 L 111.250 77.417 111.167 81.083 L 111.083 84.750 108.250 84.750 L 105.417 84.750 105.417 75.583 C 105.417 68.489,105.466 66.247,105.636 65.667 C 105.757 65.254,105.935 64.654,106.031 64.333 C 106.888 61.471,109.737 57.720,112.002 56.470 C 113.656 55.557,114.453 55.165,115.000 54.992 C 117.962 54.061,118.263 54.038,127.026 54.063 L 134.303 54.083 134.931 54.592 M146.675 59.667 C 146.828 68.953,146.707 68.833,155.922 68.833 C 163.401 68.833,164.111 68.682,165.268 66.846 L 165.748 66.083 165.804 60.218 C 165.847 55.649,165.907 54.313,166.077 54.172 C 166.219 54.054,167.219 54.007,168.939 54.037 L 171.583 54.083 171.631 60.250 C 171.679 66.484,171.637 67.070,171.045 68.500 C 169.399 72.473,166.198 74.555,161.333 74.814 L 159.417 74.917 159.327 79.833 C 159.278 82.537,159.221 84.771,159.202 84.796 C 159.183 84.821,157.873 84.821,156.292 84.796 L 153.417 84.750 153.373 79.801 L 153.328 74.852 151.289 74.784 C 147.525 74.659,144.391 73.113,142.583 70.490 C 141.064 68.285,140.939 67.566,140.871 60.614 C 140.826 55.985,140.861 54.418,141.013 54.235 C 141.177 54.037,141.710 54.000,143.899 54.038 L 146.583 54.083 146.675 59.667 M247.258 54.406 C 248.786 55.406,248.674 54.099,248.626 70.371 L 248.583 84.750 245.750 84.750 L 242.917 84.750 242.833 81.083 L 242.750 77.417 233.250 77.417 L 223.750 77.417 223.667 81.083 L 223.583 84.750 220.750 84.750 L 217.917 84.750 217.925 76.000 C 217.936 65.358,217.986 64.977,219.866 61.417 C 221.194 58.901,225.896 55.000,227.600 55.000 C 227.731 55.000,227.968 54.932,228.127 54.849 C 229.460 54.153,231.130 54.038,239.508 54.062 C 246.381 54.082,246.791 54.100,247.258 54.406 M259.684 54.137 C 259.832 54.199,260.392 54.775,260.929 55.417 C 261.466 56.058,261.948 56.621,261.999 56.667 C 262.050 56.712,262.690 57.462,263.421 58.333 C 264.152 59.204,264.787 59.954,264.833 60.000 C 264.935 60.102,265.815 61.119,266.858 62.342 C 267.285 62.841,267.799 63.438,268.001 63.667 C 268.202 63.896,268.462 64.216,268.577 64.379 C 268.884 64.811,269.113 64.644,270.541 62.949 C 271.251 62.106,272.076 61.150,272.374 60.823 C 272.673 60.497,273.201 59.880,273.549 59.452 C 273.897 59.025,274.272 58.579,274.383 58.462 C 274.493 58.346,274.996 57.763,275.500 57.168 C 276.935 55.475,277.383 54.962,277.865 54.460 L 278.314 53.994 282.030 54.038 C 286.250 54.089,286.272 54.098,285.209 55.276 C 284.865 55.657,284.433 56.145,284.250 56.361 C 283.560 57.173,280.771 60.437,280.352 60.921 C 280.113 61.198,279.236 62.210,278.405 63.171 C 277.573 64.131,276.711 65.135,276.488 65.401 C 275.851 66.163,273.955 68.369,273.542 68.829 C 272.981 69.453,273.045 69.608,274.603 71.417 C 275.392 72.333,276.199 73.272,276.394 73.504 C 276.590 73.735,277.501 74.785,278.418 75.837 C 279.336 76.889,280.498 78.237,281.001 78.833 C 281.503 79.429,281.955 79.954,282.004 80.000 C 282.053 80.046,282.689 80.790,283.416 81.655 C 284.144 82.519,284.948 83.454,285.203 83.733 C 286.183 84.806,286.102 84.834,281.958 84.831 C 279.919 84.829,278.171 84.773,278.074 84.706 C 277.908 84.591,275.495 81.827,273.833 79.849 C 273.421 79.358,273.007 78.872,272.914 78.770 C 272.821 78.667,272.231 77.983,271.603 77.250 C 269.391 74.668,269.081 74.337,268.875 74.335 C 268.760 74.334,268.667 74.390,268.667 74.460 C 268.667 74.530,268.498 74.774,268.292 75.002 C 268.085 75.231,267.504 75.905,267.000 76.501 C 266.496 77.096,266.008 77.667,265.917 77.768 C 265.328 78.422,264.684 79.163,264.270 79.667 C 264.005 79.988,263.398 80.700,262.920 81.250 C 262.442 81.800,261.565 82.813,260.972 83.500 L 259.892 84.750 256.166 84.795 C 251.652 84.849,251.642 84.843,253.275 83.083 C 253.446 82.900,254.484 81.700,255.582 80.417 C 256.681 79.133,257.777 77.858,258.019 77.583 C 258.260 77.308,259.382 75.996,260.513 74.667 C 261.643 73.337,262.614 72.212,262.671 72.167 C 263.559 71.449,265.019 69.276,264.706 69.139 C 264.637 69.108,263.982 68.371,263.251 67.500 C 262.521 66.629,261.842 65.842,261.743 65.750 C 261.644 65.658,261.156 65.096,260.658 64.500 C 260.160 63.904,259.712 63.379,259.663 63.333 C 259.614 63.288,258.978 62.538,258.250 61.667 C 257.522 60.796,256.886 60.046,256.837 60.000 C 256.788 59.954,256.336 59.429,255.832 58.833 C 255.329 58.237,254.826 57.654,254.716 57.538 C 254.606 57.421,254.231 56.971,253.883 56.538 C 253.535 56.104,253.007 55.487,252.710 55.167 C 252.173 54.587,252.065 54.324,252.278 54.111 C 252.423 53.966,259.336 53.989,259.684 54.137 M311.917 56.748 C 310.640 57.312,310.593 57.469,310.500 61.388 L 310.417 64.917 306.987 65.000 C 302.035 65.120,302.000 65.152,302.001 69.492 C 302.002 73.769,302.074 73.833,306.875 73.833 C 310.873 73.833,310.500 73.457,310.501 77.492 C 310.502 82.247,310.580 82.334,314.901 82.333 C 319.139 82.332,319.214 82.247,319.333 77.341 L 319.417 73.917 322.822 73.871 C 327.640 73.807,327.833 73.639,327.833 69.495 C 327.833 65.249,327.688 65.118,322.833 65.000 L 319.417 64.917 319.333 61.500 C 319.239 57.614,319.136 57.291,317.832 56.769 C 316.965 56.422,312.689 56.407,311.917 56.748 M119.083 60.109 C 118.358 60.198,117.375 60.500,116.370 60.945 C 115.886 61.158,115.430 61.333,115.357 61.333 C 114.673 61.333,112.403 64.129,111.813 65.697 C 111.358 66.907,111.008 70.858,111.322 71.236 C 111.563 71.526,129.678 71.647,130.127 71.361 C 130.292 71.257,130.328 70.002,130.294 65.655 L 130.250 60.083 124.917 60.066 C 121.983 60.056,119.358 60.075,119.083 60.109 M231.333 60.168 C 226.425 60.988,223.408 65.002,223.692 70.333 L 223.750 71.417 232.917 71.463 C 237.958 71.488,242.253 71.468,242.461 71.417 L 242.838 71.326 242.794 65.705 L 242.750 60.083 237.417 60.063 C 234.483 60.052,231.746 60.099,231.333 60.168 " stroke="none" fill="#141414" fill-rule="evenodd"></path><path id="path2" d="M314.208 48.288 C 314.552 48.324,315.115 48.324,315.458 48.288 C 315.802 48.252,315.521 48.223,314.833 48.223 C 314.146 48.223,313.865 48.252,314.208 48.288 M312.708 48.448 C 312.869 48.490,313.131 48.490,313.292 48.448 C 313.452 48.406,313.321 48.372,313.000 48.372 C 312.679 48.372,312.548 48.406,312.708 48.448 M316.917 48.504 C 317.579 48.647,319.119 48.722,318.986 48.606 C 318.948 48.572,318.317 48.504,317.583 48.453 C 316.626 48.387,316.438 48.401,316.917 48.504 M311.042 48.619 C 311.294 48.658,311.706 48.658,311.958 48.619 C 312.210 48.581,312.004 48.550,311.500 48.550 C 310.996 48.550,310.790 48.581,311.042 48.619 M308.333 49.260 C 308.012 49.382,307.873 49.485,308.023 49.491 C 308.172 49.496,308.547 49.390,308.856 49.257 C 309.550 48.955,309.132 48.958,308.333 49.260 M323.649 50.256 C 324.052 50.486,324.415 50.640,324.457 50.599 C 324.537 50.518,323.271 49.832,323.048 49.835 C 322.976 49.836,323.246 50.026,323.649 50.256 M324.907 50.922 C 325.085 51.057,325.305 51.167,325.397 51.167 C 325.489 51.167,325.418 51.057,325.240 50.922 C 325.062 50.787,324.842 50.677,324.750 50.677 C 324.658 50.677,324.729 50.787,324.907 50.922 M301.721 52.814 C 300.820 53.537,299.822 54.418,299.502 54.772 C 299.075 55.245,299.164 55.191,299.835 54.573 C 300.338 54.109,301.313 53.288,302.000 52.748 C 303.561 51.524,303.589 51.500,303.463 51.500 C 303.406 51.500,302.622 52.091,301.721 52.814 M326.505 51.776 C 326.731 51.928,327.071 52.172,327.260 52.318 C 327.448 52.464,327.342 52.340,327.024 52.042 C 326.705 51.744,326.365 51.500,326.268 51.500 C 326.172 51.500,326.278 51.624,326.505 51.776 M327.885 52.782 C 328.025 53.009,329.333 54.064,329.333 53.951 C 329.333 53.908,328.981 53.584,328.549 53.231 C 328.118 52.878,327.819 52.676,327.885 52.782 M177.603 54.505 C 176.465 55.504,176.500 55.005,176.500 70.413 C 176.500 80.966,176.548 84.314,176.700 84.467 C 176.979 84.746,181.688 84.746,181.967 84.467 C 182.117 84.316,182.167 82.126,182.167 75.633 C 182.167 70.885,182.223 67.001,182.292 67.003 C 182.360 67.004,182.891 67.829,183.471 68.836 C 184.050 69.843,184.562 70.667,184.608 70.667 C 184.694 70.667,184.031 69.446,183.046 67.792 C 181.985 66.010,182.008 65.848,181.960 75.625 L 181.917 84.417 179.417 84.417 L 176.917 84.417 176.874 70.166 C 176.826 54.230,176.756 55.224,178.000 54.375 C 178.302 54.169,178.466 54.000,178.364 54.000 C 178.262 54.000,177.919 54.227,177.603 54.505 M180.417 54.194 C 180.600 54.295,180.941 54.537,181.174 54.731 C 181.408 54.925,181.353 54.840,181.052 54.542 C 180.751 54.244,180.410 54.002,180.294 54.005 C 180.178 54.008,180.233 54.093,180.417 54.194 M207.508 54.625 C 207.152 54.969,206.676 55.587,206.450 56.000 C 206.223 56.413,205.836 57.106,205.588 57.542 C 205.341 57.977,205.173 58.333,205.216 58.333 C 205.300 58.333,206.500 56.364,206.500 56.226 C 206.500 55.956,207.617 54.591,208.058 54.321 C 208.347 54.145,208.487 54.001,208.369 54.001 C 208.250 54.000,207.863 54.281,207.508 54.625 M210.795 54.425 C 211.095 54.666,211.486 55.138,211.663 55.473 C 211.840 55.809,211.989 55.983,211.993 55.860 C 212.005 55.498,211.118 54.368,210.667 54.170 C 210.326 54.020,210.349 54.066,210.795 54.425 M329.500 54.044 C 329.500 54.125,330.000 54.713,331.164 56.000 C 331.454 56.321,331.312 56.087,330.848 55.481 C 330.054 54.443,329.500 53.852,329.500 54.044 M61.017 54.625 C 61.026 54.785,61.095 55.104,61.170 55.333 C 61.281 55.671,61.302 55.616,61.279 55.042 C 61.263 54.652,61.194 54.334,61.125 54.334 C 61.056 54.333,61.007 54.465,61.017 54.625 M66.329 54.443 C 66.423 54.490,66.506 54.803,66.513 55.139 C 66.520 55.475,66.630 56.050,66.758 56.417 L 66.991 57.083 66.887 56.417 C 66.829 56.050,66.737 55.456,66.683 55.097 C 66.628 54.738,66.488 54.425,66.371 54.401 C 66.254 54.378,66.235 54.396,66.329 54.443 M95.995 54.675 C 95.895 54.863,95.836 55.180,95.865 55.378 C 95.902 55.635,95.970 55.537,96.102 55.036 C 96.306 54.262,96.274 54.155,95.995 54.675 M101.230 54.958 C 101.219 55.302,101.163 55.921,101.105 56.333 C 101.007 57.038,101.015 57.028,101.243 56.167 C 101.510 55.159,101.569 54.333,101.375 54.333 C 101.306 54.333,101.241 54.615,101.230 54.958 M117.250 54.601 L 116.417 54.830 117.250 54.729 C 117.708 54.673,118.383 54.571,118.750 54.502 L 119.417 54.375 118.750 54.374 C 118.383 54.373,117.708 54.476,117.250 54.601 M134.144 54.590 C 134.856 54.899,134.983 54.898,134.574 54.589 C 134.396 54.454,134.100 54.344,133.917 54.345 C 133.686 54.346,133.756 54.421,134.144 54.590 M141.101 54.597 C 140.965 54.951,141.013 63.923,141.159 65.500 C 141.232 66.282,141.302 64.426,141.346 60.542 C 141.411 54.798,141.374 53.886,141.101 54.597 M166.149 59.833 C 166.093 62.904,166.001 65.642,165.943 65.917 C 165.886 66.192,165.951 66.079,166.088 65.667 C 166.292 65.052,166.329 63.957,166.294 59.583 L 166.250 54.250 166.149 59.833 M171.296 60.051 C 171.341 65.636,171.264 66.798,170.758 68.250 C 170.653 68.551,170.660 68.555,170.831 68.289 C 171.400 67.402,171.500 66.199,171.500 60.242 C 171.500 56.992,171.444 54.333,171.375 54.333 C 171.306 54.333,171.271 56.906,171.296 60.051 M229.833 54.606 L 229.083 54.834 229.833 54.738 C 230.246 54.684,230.883 54.581,231.250 54.508 L 231.917 54.375 231.250 54.376 C 230.883 54.376,230.246 54.480,229.833 54.606 M246.727 54.584 C 247.335 54.901,247.490 54.903,247.074 54.589 C 246.896 54.454,246.637 54.342,246.500 54.340 C 246.362 54.337,246.465 54.447,246.727 54.584 M252.500 54.488 C 252.500 54.573,252.594 54.742,252.710 54.863 C 252.825 54.984,254.007 56.358,255.335 57.917 C 256.663 59.475,257.945 60.975,258.184 61.250 C 258.423 61.525,259.100 62.313,259.689 63.000 C 260.277 63.688,261.471 65.075,262.342 66.083 C 264.643 68.749,265.000 69.211,265.000 69.523 C 265.000 69.776,264.456 70.457,261.767 73.567 C 260.137 75.453,259.864 75.770,257.171 78.917 C 255.681 80.658,254.264 82.309,254.022 82.586 C 252.066 84.824,251.905 84.667,256.155 84.667 L 259.624 84.667 260.270 83.954 C 260.626 83.562,261.300 82.793,261.768 82.246 C 263.837 79.826,268.733 74.078,268.769 74.026 C 268.920 73.809,269.201 74.119,275.418 81.343 C 276.724 82.861,277.920 84.229,278.075 84.385 C 278.322 84.632,278.790 84.667,281.845 84.667 C 285.845 84.667,285.760 84.709,284.542 83.307 C 284.106 82.806,283.337 81.915,282.833 81.328 C 281.436 79.700,280.661 78.910,281.524 79.994 C 281.924 80.495,282.390 81.058,282.560 81.244 C 283.364 82.122,285.167 84.302,285.167 84.395 C 285.167 84.453,283.634 84.500,281.760 84.500 L 278.353 84.500 276.235 82.042 C 275.070 80.690,273.724 79.133,273.243 78.583 C 272.762 78.033,271.641 76.740,270.751 75.708 C 269.022 73.704,268.910 73.631,268.427 74.208 C 267.634 75.156,266.410 76.591,266.332 76.667 C 266.284 76.712,265.317 77.837,264.184 79.167 C 263.050 80.496,261.926 81.808,261.686 82.083 C 261.446 82.358,260.884 83.015,260.438 83.542 L 259.626 84.500 256.230 84.500 C 254.362 84.500,252.833 84.438,252.833 84.363 C 252.833 84.250,253.857 82.949,254.168 82.667 C 254.218 82.621,254.855 81.871,255.583 81.000 C 256.311 80.129,256.949 79.379,257.001 79.333 C 257.052 79.287,257.990 78.200,259.085 76.917 C 260.180 75.633,261.115 74.546,261.163 74.500 C 261.270 74.398,263.866 71.362,264.709 70.353 C 265.383 69.546,265.356 69.316,264.468 68.317 C 264.256 68.079,263.708 67.446,263.250 66.909 C 262.129 65.597,261.268 64.601,261.167 64.500 C 261.121 64.454,260.708 63.967,260.250 63.417 C 259.439 62.444,258.756 61.644,258.416 61.268 C 258.324 61.167,257.799 60.558,257.249 59.917 C 256.700 59.275,256.212 58.712,256.167 58.667 C 256.121 58.621,255.671 58.096,255.168 57.500 C 254.665 56.904,254.114 56.267,253.945 56.083 C 253.221 55.299,252.683 54.539,252.782 54.440 C 252.841 54.381,252.801 54.333,252.694 54.333 C 252.588 54.333,252.500 54.403,252.500 54.488 M259.451 54.431 C 259.561 54.481,260.948 56.036,262.532 57.886 C 264.116 59.736,265.610 61.475,265.851 61.750 C 266.092 62.025,266.833 62.887,267.497 63.667 C 268.162 64.446,268.773 65.109,268.855 65.140 C 269.063 65.218,269.693 64.555,271.999 61.832 C 272.503 61.237,272.953 60.712,272.999 60.667 C 273.503 60.172,275.985 57.169,275.884 57.177 C 275.810 57.182,274.287 58.906,272.500 61.007 C 269.687 64.314,268.876 65.173,268.761 64.962 C 268.738 64.921,265.277 60.858,261.269 56.167 C 260.446 55.204,259.656 54.399,259.512 54.378 C 259.367 54.357,259.340 54.380,259.451 54.431 M277.094 55.708 C 276.474 56.465,276.293 56.740,276.692 56.320 C 277.900 55.047,278.497 54.333,278.355 54.333 C 278.281 54.333,277.713 54.952,277.094 55.708 M285.227 54.463 C 285.271 54.535,285.045 54.891,284.724 55.255 C 282.956 57.261,281.661 58.832,281.780 58.825 C 281.855 58.821,282.237 58.427,282.628 57.950 C 283.020 57.473,283.572 56.821,283.857 56.500 C 285.363 54.799,285.678 54.333,285.323 54.333 C 285.226 54.333,285.183 54.392,285.227 54.463 M114.417 55.508 C 112.046 56.546,110.143 57.978,108.701 59.808 C 107.943 60.769,106.748 62.804,106.869 62.925 C 106.910 62.966,107.048 62.793,107.174 62.541 C 108.769 59.367,111.340 56.939,114.434 55.685 C 116.326 54.918,116.454 54.856,116.167 54.853 C 116.029 54.852,115.242 55.147,114.417 55.508 M247.500 54.897 C 247.500 54.946,247.688 55.261,247.917 55.599 L 248.333 56.213 248.333 70.357 L 248.333 84.500 245.833 84.500 L 243.333 84.500 243.333 80.923 C 243.333 77.556,243.314 77.335,243.011 77.173 C 242.635 76.971,223.733 76.925,223.609 77.125 C 223.567 77.194,227.847 77.230,233.121 77.206 C 240.024 77.174,242.772 77.214,242.935 77.348 C 243.108 77.492,243.170 78.344,243.205 81.059 L 243.250 84.583 245.833 84.583 L 248.417 84.583 248.459 70.452 C 248.498 57.644,248.476 56.271,248.229 55.793 C 247.968 55.289,247.500 54.713,247.500 54.897 M135.349 55.500 C 135.832 56.248,135.833 56.250,135.833 56.069 C 135.832 55.985,135.638 55.692,135.402 55.417 L 134.972 54.917 135.349 55.500 M226.083 55.918 C 225.258 56.332,224.321 56.903,224.000 57.189 L 223.417 57.708 224.000 57.296 C 224.711 56.793,226.510 55.824,227.417 55.455 C 227.783 55.306,227.971 55.180,227.833 55.175 C 227.696 55.171,226.908 55.505,226.083 55.918 M181.667 55.467 C 181.667 55.540,181.732 55.671,181.813 55.758 C 181.893 55.845,182.144 56.254,182.370 56.667 C 183.328 58.415,186.035 63.000,186.110 63.000 C 186.198 63.000,185.715 62.121,184.000 59.167 C 183.388 58.112,182.645 56.819,182.348 56.292 C 181.832 55.375,181.667 55.175,181.667 55.467 M298.231 56.284 C 297.878 56.715,297.676 57.014,297.782 56.948 C 298.009 56.808,299.064 55.500,298.951 55.500 C 298.908 55.500,298.584 55.853,298.231 56.284 M61.358 56.250 C 61.356 56.525,61.456 57.200,61.580 57.750 C 61.723 58.385,61.807 58.568,61.809 58.250 C 61.810 57.975,61.711 57.300,61.587 56.750 C 61.444 56.115,61.360 55.932,61.358 56.250 M95.528 57.087 C 95.408 57.818,95.232 58.777,95.136 59.217 C 95.041 59.658,94.998 60.053,95.041 60.096 C 95.084 60.140,95.208 59.704,95.317 59.129 C 95.426 58.554,95.595 57.705,95.693 57.242 C 95.791 56.779,95.843 56.255,95.809 56.078 C 95.775 55.901,95.648 56.355,95.528 57.087 M318.083 56.614 C 318.358 56.761,318.636 56.962,318.699 57.061 C 318.763 57.160,318.865 57.190,318.926 57.129 C 319.045 57.011,318.030 56.330,317.750 56.341 C 317.658 56.344,317.808 56.467,318.083 56.614 M135.833 70.417 L 135.750 84.417 133.167 84.507 L 130.583 84.597 133.205 84.632 C 135.799 84.666,135.828 84.663,135.918 84.292 C 135.968 84.085,135.988 77.729,135.962 70.167 L 135.916 56.417 135.833 70.417 M332.160 57.292 C 332.469 57.681,332.753 58.000,332.789 58.000 C 332.907 58.000,332.193 57.062,331.889 56.819 C 331.728 56.689,331.850 56.902,332.160 57.292 M296.933 57.999 C 296.684 58.458,296.515 58.833,296.559 58.833 C 296.670 58.833,297.518 57.296,297.446 57.224 C 297.414 57.191,297.183 57.540,296.933 57.999 M100.683 58.541 C 100.570 59.206,100.408 60.021,100.322 60.353 C 100.237 60.684,100.173 61.134,100.181 61.353 C 100.189 61.571,100.294 61.300,100.413 60.750 C 100.793 58.999,101.042 57.486,100.963 57.408 C 100.921 57.366,100.795 57.876,100.683 58.541 M67.003 57.931 C 67.004 58.198,67.082 58.529,67.175 58.667 C 67.297 58.846,67.314 58.728,67.234 58.250 C 67.096 57.423,66.999 57.290,67.003 57.931 M222.234 58.709 C 220.406 60.632,218.649 63.739,218.677 65.000 C 218.680 65.137,218.796 64.912,218.934 64.500 C 219.683 62.267,221.265 59.703,222.686 58.419 C 223.058 58.083,223.332 57.776,223.293 57.738 C 223.255 57.700,222.778 58.137,222.234 58.709 M310.202 61.000 C 310.146 65.097,310.549 64.650,306.857 64.709 L 303.750 64.758 306.869 64.796 C 310.688 64.842,310.357 65.196,310.291 61.129 L 310.242 58.083 310.202 61.000 M204.681 59.097 C 204.482 59.434,204.351 59.740,204.389 59.778 C 204.427 59.816,204.621 59.572,204.819 59.236 C 205.018 58.900,205.149 58.593,205.111 58.555 C 205.073 58.517,204.879 58.761,204.681 59.097 M319.576 61.667 L 319.583 64.750 322.750 64.758 L 325.917 64.765 322.833 64.674 L 319.750 64.583 319.659 61.583 L 319.568 58.583 319.576 61.667 M61.862 59.250 C 61.864 59.433,61.927 59.771,62.000 60.000 L 62.133 60.417 62.138 60.000 C 62.141 59.771,62.079 59.433,62.000 59.250 L 61.857 58.917 61.862 59.250 M280.979 59.625 C 280.131 60.527,278.718 62.249,278.932 62.122 C 279.133 62.001,281.727 59.000,281.629 59.000 C 281.595 59.000,281.303 59.281,280.979 59.625 M296.008 59.651 C 295.817 60.026,295.692 60.333,295.730 60.333 C 295.855 60.333,296.516 59.127,296.435 59.046 C 296.392 59.003,296.200 59.275,296.008 59.651 M67.367 59.667 C 67.363 59.987,67.464 60.550,67.593 60.917 C 67.851 61.650,67.845 61.581,67.501 59.750 L 67.375 59.083 67.367 59.667 M80.958 59.284 C 81.165 59.324,81.502 59.324,81.708 59.284 C 81.915 59.245,81.746 59.212,81.333 59.212 C 80.921 59.212,80.752 59.245,80.958 59.284 M333.667 59.833 C 333.854 60.200,334.044 60.500,334.090 60.500 C 334.136 60.500,334.020 60.200,333.833 59.833 C 333.646 59.467,333.456 59.167,333.410 59.167 C 333.364 59.167,333.480 59.467,333.667 59.833 M79.650 59.789 C 79.113 60.241,77.246 62.968,77.381 63.103 C 77.419 63.142,77.847 62.527,78.331 61.738 C 78.869 60.861,79.471 60.115,79.880 59.818 C 80.249 59.552,80.470 59.333,80.371 59.333 C 80.273 59.333,79.948 59.539,79.650 59.789 M82.407 59.551 C 82.809 59.798,83.301 60.283,83.799 60.925 C 84.009 61.195,83.957 61.072,83.683 60.650 C 83.223 59.941,82.524 59.320,82.214 59.343 C 82.142 59.349,82.229 59.442,82.407 59.551 M118.917 59.757 L 118.250 59.991 118.917 59.871 C 119.283 59.804,122.021 59.750,125.000 59.750 L 130.417 59.750 130.460 65.710 L 130.504 71.669 120.794 71.626 L 111.083 71.583 111.083 69.298 C 111.083 68.041,111.032 67.141,110.970 67.298 C 110.675 68.042,110.823 71.649,111.156 71.827 C 111.659 72.097,130.017 72.063,130.387 71.792 C 130.647 71.601,130.668 71.076,130.627 65.583 L 130.583 59.583 125.083 59.553 C 120.729 59.530,119.444 59.572,118.917 59.757 M231.417 59.759 C 230.999 59.905,230.937 59.953,231.250 59.887 C 231.525 59.829,234.244 59.752,237.293 59.716 L 242.835 59.650 243.001 60.086 C 243.259 60.764,243.220 71.030,242.958 71.388 C 242.765 71.651,242.040 71.669,233.125 71.628 C 227.831 71.603,223.500 71.632,223.500 71.691 C 223.500 72.187,242.503 72.164,243.000 71.667 C 243.460 71.207,243.526 60.216,243.071 59.762 C 242.705 59.396,232.462 59.393,231.417 59.759 M116.583 60.429 C 115.741 60.842,115.838 60.834,117.125 60.383 C 117.515 60.247,117.833 60.105,117.833 60.068 C 117.833 59.911,117.363 60.047,116.583 60.429 M202.911 62.208 C 202.202 63.423,201.580 64.492,201.529 64.583 C 201.478 64.675,201.563 64.647,201.718 64.521 C 201.873 64.395,202.000 64.233,202.000 64.160 C 202.000 64.087,202.457 63.253,203.015 62.308 C 204.233 60.244,204.366 60.000,204.273 60.000 C 204.233 60.000,203.620 60.994,202.911 62.208 M228.417 60.738 C 227.410 61.233,226.670 61.736,226.167 62.267 L 225.417 63.058 226.417 62.208 C 227.286 61.470,227.852 61.154,230.000 60.206 C 230.229 60.105,230.304 60.018,230.167 60.012 C 230.029 60.006,229.242 60.333,228.417 60.738 M94.860 60.688 C 94.845 60.836,94.791 61.211,94.739 61.521 C 94.662 61.981,94.679 62.030,94.833 61.788 C 94.936 61.626,94.990 61.251,94.954 60.955 C 94.917 60.659,94.875 60.539,94.860 60.688 M62.273 61.333 C 62.493 62.899,62.624 63.465,62.639 62.917 C 62.646 62.642,62.543 62.004,62.410 61.500 C 62.182 60.640,62.174 60.630,62.273 61.333 M114.583 61.447 C 112.787 62.751,110.946 65.581,111.218 66.622 C 111.273 66.834,111.300 66.804,111.314 66.517 C 111.379 65.172,113.434 62.277,114.956 61.385 C 115.347 61.156,115.667 60.938,115.667 60.901 C 115.667 60.730,115.353 60.888,114.583 61.447 M334.525 61.500 C 334.525 61.637,334.626 62.012,334.750 62.333 C 334.874 62.654,334.975 62.804,334.975 62.667 C 334.975 62.529,334.874 62.154,334.750 61.833 C 334.626 61.512,334.525 61.362,334.525 61.500 M67.862 62.500 C 67.859 62.729,67.921 63.067,68.000 63.250 L 68.143 63.583 68.138 63.250 C 68.136 63.067,68.073 62.729,68.000 62.500 L 67.867 62.083 67.862 62.500 M94.445 62.954 C 94.388 63.392,94.296 63.938,94.240 64.167 C 94.161 64.487,94.178 64.526,94.312 64.335 C 94.502 64.064,94.757 62.368,94.627 62.238 C 94.583 62.194,94.501 62.517,94.445 62.954 M99.907 62.741 C 99.845 63.075,99.831 63.386,99.877 63.432 C 99.922 63.478,100.011 63.242,100.074 62.907 C 100.137 62.573,100.151 62.262,100.105 62.216 C 100.059 62.170,99.970 62.406,99.907 62.741 M84.855 62.678 C 85.393 63.687,86.760 65.825,86.870 65.829 C 86.935 65.831,86.532 65.102,85.974 64.208 C 84.982 62.620,84.400 61.825,84.855 62.678 M277.083 64.101 C 276.258 65.065,275.304 66.194,274.963 66.608 C 274.621 67.023,273.965 67.781,273.504 68.293 C 273.044 68.805,272.667 69.343,272.667 69.487 C 272.667 69.766,273.504 70.833,273.722 70.833 C 273.792 70.833,273.622 70.590,273.343 70.292 C 272.565 69.462,272.394 69.753,276.300 65.264 C 277.703 63.652,278.790 62.336,278.717 62.340 C 278.643 62.343,277.908 63.136,277.083 64.101 M186.167 63.236 C 186.167 63.274,186.662 64.156,187.268 65.194 C 187.874 66.233,188.665 67.590,189.026 68.208 C 189.387 68.827,189.718 69.333,189.763 69.333 C 189.867 69.333,189.753 69.122,188.515 67.025 C 187.957 66.080,187.500 65.280,187.500 65.248 C 187.500 65.217,187.229 64.735,186.897 64.179 C 186.356 63.270,186.167 63.026,186.167 63.236 M225.003 63.542 C 224.283 64.650,223.494 66.654,223.510 67.333 C 223.516 67.562,223.655 67.248,223.821 66.634 C 224.127 65.499,224.829 63.986,225.294 63.458 C 225.436 63.298,225.483 63.167,225.399 63.167 C 225.315 63.167,225.137 63.335,225.003 63.542 M76.556 64.292 C 76.222 64.819,75.619 65.765,75.216 66.394 C 74.812 67.023,74.512 67.568,74.548 67.604 C 74.612 67.667,75.484 66.369,75.961 65.501 C 76.086 65.273,76.360 64.860,76.569 64.584 C 77.024 63.982,77.380 63.333,77.254 63.333 C 77.204 63.333,76.890 63.765,76.556 64.292 M62.686 63.833 C 62.694 63.971,62.760 64.271,62.833 64.500 L 62.967 64.917 62.981 64.500 C 62.989 64.271,62.922 63.971,62.833 63.833 C 62.690 63.611,62.673 63.611,62.686 63.833 M68.204 64.167 C 68.201 64.487,68.301 65.125,68.427 65.583 L 68.655 66.417 68.555 65.667 C 68.500 65.254,68.400 64.617,68.332 64.250 L 68.208 63.583 68.204 64.167 M99.542 64.704 C 99.258 66.230,99.302 66.844,99.599 65.500 C 99.731 64.904,99.819 64.229,99.794 64.000 C 99.770 63.769,99.657 64.083,99.542 64.704 M106.192 64.555 C 106.069 64.975,106.006 65.416,106.054 65.534 C 106.101 65.653,106.146 65.576,106.154 65.364 C 106.161 65.152,106.246 64.829,106.344 64.647 C 106.441 64.465,106.498 64.198,106.469 64.053 C 106.440 63.908,106.316 64.134,106.192 64.555 M335.442 64.417 C 335.503 64.692,335.606 65.254,335.671 65.667 L 335.789 66.417 335.798 65.750 C 335.804 65.383,335.701 64.821,335.569 64.500 C 335.353 63.973,335.341 63.965,335.442 64.417 M294.104 64.590 C 294.047 64.739,294.006 64.986,294.014 65.139 C 294.022 65.292,294.095 65.195,294.175 64.925 C 294.333 64.399,294.277 64.139,294.104 64.590 M199.912 67.368 C 197.829 70.996,197.808 71.035,197.985 70.926 C 198.073 70.871,198.253 70.622,198.384 70.372 C 198.515 70.121,199.269 68.798,200.061 67.430 C 200.852 66.063,201.472 64.916,201.438 64.882 C 201.403 64.848,200.717 65.967,199.912 67.368 M302.676 65.268 C 302.392 65.507,302.080 65.863,301.983 66.060 C 301.886 66.256,302.012 66.164,302.264 65.855 C 302.516 65.547,302.953 65.193,303.236 65.070 C 303.519 64.947,303.625 64.843,303.471 64.840 C 303.318 64.836,302.960 65.029,302.676 65.268 M327.027 65.360 C 327.270 65.575,327.586 65.975,327.728 66.250 C 327.870 66.525,327.989 66.675,327.993 66.583 C 328.004 66.263,327.348 65.353,326.967 65.162 C 326.625 64.991,326.632 65.013,327.027 65.360 M93.859 66.333 C 93.741 67.021,93.575 67.855,93.489 68.186 C 93.403 68.517,93.334 68.892,93.336 69.019 C 93.342 69.554,93.649 68.733,93.745 67.925 C 93.800 67.462,93.925 66.774,94.022 66.395 C 94.119 66.016,94.171 65.566,94.136 65.395 C 94.102 65.224,93.977 65.646,93.859 66.333 M63.022 65.583 C 63.022 65.767,63.123 66.367,63.247 66.917 C 63.394 67.568,63.474 67.742,63.479 67.417 C 63.482 67.142,63.381 66.542,63.254 66.083 C 63.127 65.625,63.022 65.400,63.022 65.583 M218.429 65.762 C 218.367 66.006,218.355 66.243,218.400 66.289 C 218.446 66.335,218.534 66.173,218.595 65.929 C 218.657 65.684,218.669 65.447,218.623 65.401 C 218.578 65.355,218.490 65.518,218.429 65.762 M146.512 65.782 C 146.505 65.983,146.575 66.193,146.667 66.250 C 146.864 66.372,146.864 66.209,146.667 65.750 C 146.529 65.429,146.523 65.430,146.512 65.782 M105.759 66.426 C 105.697 66.760,105.683 67.072,105.729 67.117 C 105.774 67.163,105.863 66.927,105.926 66.593 C 105.989 66.258,106.003 65.947,105.957 65.901 C 105.911 65.855,105.822 66.091,105.759 66.426 M293.750 67.000 C 293.685 67.561,293.669 68.058,293.715 68.104 C 293.761 68.150,293.852 67.728,293.917 67.167 C 293.982 66.605,293.998 66.109,293.952 66.063 C 293.906 66.017,293.815 66.439,293.750 67.000 M146.833 66.602 C 146.833 67.459,149.087 69.179,150.167 69.146 L 150.750 69.128 150.160 69.013 C 148.981 68.782,148.010 68.169,147.408 67.275 C 147.092 66.805,146.833 66.503,146.833 66.602 M165.667 66.615 C 165.667 67.074,164.273 68.333,163.370 68.691 C 162.465 69.050,162.120 69.074,156.583 69.175 L 150.750 69.281 156.583 69.259 C 162.946 69.235,163.564 69.149,164.701 68.121 C 165.249 67.626,165.895 66.673,165.768 66.546 C 165.712 66.490,165.667 66.521,165.667 66.615 M301.736 69.417 C 301.736 71.067,301.761 71.719,301.791 70.867 C 301.821 70.014,301.821 68.664,301.791 67.867 C 301.760 67.069,301.735 67.767,301.736 69.417 M206.198 66.930 C 205.998 67.071,205.833 67.271,205.833 67.376 C 205.833 67.514,205.889 67.511,206.033 67.367 C 206.651 66.749,206.662 66.892,206.707 75.875 L 206.750 84.583 209.237 84.630 C 210.605 84.655,211.783 84.618,211.854 84.546 C 211.925 84.475,210.844 84.417,209.450 84.417 L 206.917 84.417 206.833 75.639 C 206.745 66.334,206.760 66.537,206.198 66.930 M68.695 67.167 C 68.692 67.396,68.755 67.733,68.833 67.917 L 68.977 68.250 68.972 67.917 C 68.969 67.733,68.907 67.396,68.833 67.167 L 68.700 66.750 68.695 67.167 M87.501 66.958 C 87.501 67.027,87.690 67.308,87.921 67.583 L 88.340 68.083 87.987 67.458 C 87.644 66.851,87.499 66.702,87.501 66.958 M218.125 68.067 C 217.884 70.609,217.972 84.269,218.231 84.484 C 218.388 84.615,219.254 84.661,220.939 84.630 L 223.417 84.583 223.422 81.042 L 223.427 77.500 223.377 81.000 L 223.327 84.500 220.831 84.500 L 218.336 84.500 218.293 75.625 C 218.267 70.325,218.200 67.280,218.125 68.067 M335.872 67.333 C 335.872 67.654,335.906 67.785,335.948 67.625 C 335.990 67.465,335.990 67.202,335.948 67.042 C 335.906 66.881,335.872 67.012,335.872 67.333 M99.104 67.256 C 99.047 67.405,99.007 67.690,99.015 67.889 C 99.026 68.145,99.077 68.087,99.191 67.690 C 99.357 67.113,99.289 66.774,99.104 67.256 M328.067 69.417 C 328.067 70.792,328.093 71.332,328.124 70.617 C 328.155 69.903,328.155 68.778,328.124 68.117 C 328.092 67.457,328.066 68.042,328.067 69.417 M80.733 67.709 C 80.197 68.537,76.133 75.227,76.052 75.417 C 75.815 75.965,76.766 74.510,78.446 71.750 C 81.102 67.389,81.157 67.308,81.354 67.429 C 81.450 67.488,81.895 68.110,82.344 68.810 C 82.793 69.510,83.162 70.025,83.164 69.954 C 83.168 69.749,81.806 67.605,81.525 67.375 C 81.168 67.084,81.127 67.101,80.733 67.709 M204.765 69.275 C 204.250 70.160,203.859 70.914,203.896 70.952 C 203.934 70.989,204.209 70.584,204.509 70.052 C 204.808 69.519,205.236 68.765,205.459 68.375 C 205.682 67.985,205.828 67.667,205.783 67.667 C 205.739 67.667,205.280 68.391,204.765 69.275 M73.539 69.084 C 73.105 69.773,72.262 71.120,71.667 72.078 C 70.541 73.890,70.019 74.291,69.981 73.375 C 69.968 73.069,69.935 73.018,69.883 73.222 C 69.452 74.888,70.354 74.430,71.698 72.299 C 74.044 68.581,74.499 67.833,74.416 67.833 C 74.368 67.833,73.974 68.396,73.539 69.084 M105.581 76.208 L 105.583 84.583 108.208 84.629 C 109.652 84.654,110.848 84.654,110.867 84.629 C 110.885 84.604,110.941 82.933,110.992 80.917 L 111.083 77.250 120.750 77.250 L 130.417 77.250 130.505 80.833 L 130.593 84.417 130.630 80.809 C 130.662 77.652,130.634 77.190,130.403 77.101 C 130.011 76.951,111.284 76.984,111.045 77.135 C 110.896 77.230,110.828 78.236,110.795 80.841 L 110.750 84.417 108.210 84.463 L 105.670 84.509 105.624 76.171 L 105.579 67.833 105.581 76.208 M141.678 68.167 C 141.678 68.304,141.786 68.604,141.917 68.833 C 142.054 69.074,142.155 69.144,142.155 69.000 C 142.155 68.862,142.048 68.563,141.917 68.333 C 141.779 68.093,141.678 68.022,141.678 68.167 M336.042 68.583 C 336.044 68.950,336.078 69.080,336.118 68.873 C 336.158 68.666,336.156 68.366,336.115 68.206 C 336.073 68.047,336.040 68.217,336.042 68.583 M63.528 68.417 C 63.531 68.600,63.593 68.938,63.667 69.167 L 63.800 69.583 63.805 69.167 C 63.808 68.938,63.745 68.600,63.667 68.417 L 63.523 68.083 63.528 68.417 M88.333 68.241 C 88.333 68.391,90.866 72.334,91.026 72.433 C 91.116 72.489,90.797 71.908,90.315 71.142 C 89.834 70.376,89.217 69.394,88.945 68.958 C 88.490 68.230,88.333 68.047,88.333 68.241 M69.032 68.750 C 69.026 69.025,69.129 69.700,69.260 70.250 C 69.467 71.116,69.488 71.149,69.416 70.500 C 69.276 69.227,69.043 68.168,69.032 68.750 M98.692 69.438 C 98.569 69.999,98.504 70.599,98.548 70.771 C 98.607 71.000,98.633 70.967,98.647 70.650 C 98.658 70.411,98.747 69.985,98.846 69.701 C 98.945 69.418,99.001 69.013,98.971 68.801 C 98.938 68.564,98.831 68.807,98.692 69.438 M170.360 69.090 C 170.081 69.703,170.134 69.834,170.436 69.277 C 170.577 69.017,170.662 68.773,170.623 68.735 C 170.585 68.696,170.467 68.857,170.360 69.090 M223.389 70.167 C 223.389 70.854,223.419 71.135,223.455 70.792 C 223.491 70.448,223.491 69.885,223.455 69.542 C 223.419 69.198,223.389 69.479,223.389 70.167 M142.415 69.817 C 143.359 71.685,147.672 74.622,148.969 74.280 C 149.172 74.226,149.148 74.200,148.883 74.186 C 147.362 74.106,144.344 72.188,143.148 70.542 C 142.247 69.301,142.062 69.118,142.415 69.817 M189.833 69.534 C 189.833 69.691,191.024 71.667,191.119 71.667 C 191.162 71.667,190.992 71.310,190.740 70.875 C 190.170 69.890,189.833 69.393,189.833 69.534 M63.848 69.968 C 63.840 70.179,63.903 70.667,63.987 71.051 C 64.072 71.436,64.236 72.307,64.353 72.987 C 64.469 73.667,64.597 74.126,64.637 74.006 C 64.677 73.887,64.627 73.405,64.526 72.936 C 64.425 72.467,64.235 71.521,64.103 70.833 C 63.971 70.146,63.856 69.756,63.848 69.968 M336.042 70.250 C 336.044 70.617,336.078 70.747,336.118 70.540 C 336.158 70.332,336.156 70.032,336.115 69.873 C 336.073 69.714,336.040 69.883,336.042 70.250 M93.025 70.937 C 92.908 71.568,92.734 72.444,92.638 72.884 C 92.541 73.324,92.502 73.724,92.550 73.772 C 92.598 73.820,92.723 73.422,92.828 72.888 C 92.933 72.354,93.100 71.533,93.198 71.064 C 93.296 70.595,93.344 70.117,93.306 70.001 C 93.268 69.886,93.141 70.307,93.025 70.937 M169.748 70.174 C 169.579 70.704,168.166 72.053,166.986 72.808 C 166.398 73.185,165.977 73.495,166.050 73.497 C 166.262 73.502,167.881 72.427,168.563 71.829 C 169.263 71.215,170.271 69.833,170.019 69.833 C 169.929 69.833,169.807 69.987,169.748 70.174 M84.315 72.042 C 85.496 73.985,87.404 77.106,87.856 77.833 C 87.999 78.063,88.630 79.091,89.259 80.118 C 89.888 81.145,90.431 81.958,90.466 81.923 C 90.517 81.872,89.327 79.880,88.024 77.833 C 87.878 77.604,87.644 77.218,87.504 76.975 C 86.260 74.815,83.392 70.178,83.296 70.173 C 83.230 70.170,83.688 71.010,84.315 72.042 M293.700 71.083 C 293.695 71.358,293.751 71.921,293.825 72.333 C 293.923 72.887,293.961 72.952,293.967 72.583 C 293.971 72.308,293.915 71.746,293.842 71.333 C 293.743 70.780,293.706 70.715,293.700 71.083 M184.667 70.907 C 184.667 71.071,185.380 72.176,185.444 72.111 C 185.482 72.073,185.353 71.770,185.157 71.438 C 184.833 70.889,184.667 70.709,184.667 70.907 M274.020 71.292 C 274.224 71.554,276.571 74.296,277.689 75.579 C 277.931 75.857,278.672 76.721,279.337 77.500 C 280.002 78.279,280.621 78.945,280.714 78.980 C 280.807 79.016,279.885 77.891,278.666 76.480 C 277.446 75.070,275.888 73.260,275.202 72.458 C 274.517 71.656,273.919 71.000,273.874 71.000 C 273.829 71.000,273.895 71.131,274.020 71.292 M335.872 71.500 C 335.872 71.821,335.906 71.952,335.948 71.792 C 335.990 71.631,335.990 71.369,335.948 71.208 C 335.906 71.048,335.872 71.179,335.872 71.500 M197.352 71.835 C 197.147 72.201,197.014 72.500,197.056 72.500 C 197.169 72.500,197.858 71.302,197.786 71.231 C 197.753 71.198,197.558 71.470,197.352 71.835 M203.347 71.764 C 203.149 72.100,203.018 72.407,203.056 72.445 C 203.094 72.483,203.288 72.239,203.486 71.903 C 203.685 71.566,203.816 71.260,203.777 71.222 C 203.739 71.184,203.546 71.428,203.347 71.764 M69.533 71.667 C 69.533 71.896,69.593 72.271,69.667 72.500 L 69.800 72.917 69.800 72.500 C 69.800 72.271,69.740 71.896,69.667 71.667 L 69.533 71.250 69.533 71.667 M98.287 71.722 C 98.221 71.890,98.171 72.190,98.177 72.389 C 98.187 72.732,98.196 72.729,98.350 72.344 C 98.439 72.120,98.489 71.820,98.460 71.677 C 98.416 71.463,98.386 71.471,98.287 71.722 M191.167 71.920 C 191.167 71.968,191.343 72.287,191.558 72.629 C 191.773 72.970,192.264 73.794,192.649 74.458 C 193.034 75.123,193.390 75.667,193.441 75.667 C 193.491 75.667,193.367 75.385,193.164 75.042 C 192.961 74.698,192.459 73.835,192.049 73.125 C 191.373 71.952,191.167 71.671,191.167 71.920 M185.500 72.403 C 185.500 72.441,185.950 73.235,186.500 74.167 C 187.050 75.098,187.500 75.887,187.500 75.918 C 187.500 76.068,188.720 78.002,188.778 77.944 C 188.814 77.908,188.392 77.112,187.839 76.176 C 187.286 75.239,186.833 74.447,186.833 74.415 C 186.833 74.383,186.562 73.902,186.231 73.345 C 185.689 72.436,185.500 72.192,185.500 72.403 M301.834 72.619 C 301.833 72.883,302.950 74.000,303.214 73.999 C 303.325 73.998,303.202 73.856,302.940 73.684 C 302.678 73.511,302.322 73.155,302.150 72.893 C 301.977 72.631,301.835 72.508,301.834 72.619 M335.712 73.167 C 335.712 73.579,335.745 73.748,335.784 73.542 C 335.824 73.335,335.824 72.998,335.784 72.792 C 335.745 72.585,335.712 72.754,335.712 73.167 M91.169 72.720 C 91.163 73.056,92.200 74.332,92.385 74.216 C 92.528 74.126,92.513 74.077,92.333 74.041 C 92.196 74.014,91.878 73.674,91.628 73.287 C 91.377 72.900,91.171 72.645,91.169 72.720 M196.313 73.620 C 196.002 74.150,195.598 74.870,195.416 75.220 C 195.233 75.570,194.892 76.088,194.657 76.370 L 194.231 76.883 193.868 76.317 C 193.669 76.005,193.504 75.813,193.503 75.891 C 193.498 76.111,194.172 77.000,194.343 77.000 C 194.502 77.000,194.974 76.301,195.711 74.975 C 195.948 74.549,196.340 73.885,196.583 73.501 C 196.825 73.116,196.991 72.769,196.951 72.729 C 196.911 72.689,196.624 73.090,196.313 73.620 M202.510 73.271 C 202.314 73.603,202.180 73.903,202.214 73.936 C 202.247 73.969,202.442 73.697,202.648 73.331 C 203.114 72.501,202.995 72.449,202.510 73.271 M97.952 73.417 C 97.798 74.468,97.660 75.933,97.732 75.750 C 97.894 75.337,98.203 73.192,98.130 72.983 C 98.085 72.855,98.005 73.050,97.952 73.417 M327.000 73.525 C 326.679 73.806,326.568 73.960,326.752 73.867 C 327.056 73.713,327.811 72.991,327.651 73.007 C 327.614 73.010,327.321 73.244,327.000 73.525 M164.500 74.000 C 164.362 74.089,164.063 74.173,163.833 74.187 C 163.492 74.207,163.478 74.224,163.756 74.280 C 163.943 74.317,164.355 74.235,164.673 74.097 C 164.990 73.959,165.137 73.845,165.000 73.842 C 164.862 73.840,164.637 73.911,164.500 74.000 M306.738 74.125 C 310.490 74.187,310.158 73.850,310.204 77.645 L 310.242 80.750 310.291 77.704 C 310.357 73.637,310.688 73.992,306.869 74.038 L 303.750 74.075 306.738 74.125 M319.708 74.110 C 319.551 74.174,319.509 74.929,319.536 77.222 L 319.572 80.250 319.661 77.250 L 319.750 74.250 322.917 74.161 L 326.083 74.072 323.000 74.049 C 321.304 74.037,319.823 74.064,319.708 74.110 M149.403 74.458 C 149.466 74.522,150.395 74.614,151.467 74.662 L 153.417 74.750 153.500 79.667 L 153.583 84.583 156.185 84.629 C 158.216 84.665,158.827 84.625,158.974 84.449 C 159.101 84.295,159.176 82.693,159.206 79.486 L 159.250 74.750 161.209 74.652 C 162.286 74.598,163.215 74.507,163.274 74.449 C 163.434 74.289,159.459 74.524,159.128 74.694 C 158.865 74.829,158.834 75.281,158.794 79.630 L 158.750 84.417 156.208 84.463 L 153.667 84.509 153.667 79.691 C 153.667 76.036,153.616 74.834,153.458 74.710 C 153.225 74.526,149.222 74.277,149.403 74.458 M64.681 74.718 C 64.673 74.884,64.736 75.334,64.820 75.718 C 64.905 76.102,65.067 76.961,65.181 77.626 C 65.294 78.291,65.425 78.798,65.470 78.752 C 65.558 78.664,65.264 76.876,64.907 75.333 C 64.790 74.829,64.688 74.552,64.681 74.718 M201.119 75.674 C 200.779 76.219,200.500 76.697,200.500 76.736 C 200.500 76.774,200.048 77.572,199.495 78.509 C 198.942 79.445,198.520 80.242,198.558 80.280 C 198.595 80.318,198.985 79.726,199.424 78.966 C 199.863 78.205,200.586 76.954,201.032 76.185 C 201.971 74.565,202.030 74.217,201.119 75.674 M74.164 78.452 C 72.279 81.531,72.203 81.664,72.454 81.417 C 72.740 81.135,76.013 75.791,75.942 75.720 C 75.906 75.683,75.105 76.913,74.164 78.452 M97.448 76.338 C 97.388 76.564,97.344 76.938,97.352 77.167 C 97.363 77.466,97.410 77.399,97.520 76.928 C 97.690 76.206,97.625 75.677,97.448 76.338 M334.704 76.708 C 334.421 77.493,334.460 77.706,334.761 77.013 C 334.897 76.699,334.986 76.375,334.959 76.292 C 334.931 76.210,334.817 76.397,334.704 76.708 M294.916 76.833 C 295.108 77.477,295.474 78.333,295.559 78.333 C 295.647 78.333,295.015 76.625,294.881 76.500 C 294.832 76.454,294.848 76.604,294.916 76.833 M97.015 78.963 C 96.897 79.671,96.732 80.512,96.651 80.833 C 96.569 81.154,96.509 81.604,96.518 81.833 C 96.534 82.259,96.781 81.201,97.170 79.041 C 97.289 78.376,97.352 77.797,97.309 77.754 C 97.266 77.711,97.134 78.255,97.015 78.963 M189.186 78.831 C 189.391 79.197,189.586 79.469,189.620 79.436 C 189.691 79.364,189.002 78.167,188.890 78.167 C 188.847 78.167,188.980 78.466,189.186 78.831 M65.528 79.583 C 65.531 79.767,65.593 80.104,65.667 80.333 L 65.800 80.750 65.805 80.333 C 65.808 80.104,65.745 79.767,65.667 79.583 L 65.523 79.250 65.528 79.583 M296.519 80.165 C 296.724 80.530,296.920 80.802,296.953 80.769 C 297.025 80.698,296.336 79.500,296.223 79.500 C 296.180 79.500,296.313 79.799,296.519 80.165 M189.720 79.792 C 189.760 79.860,190.206 80.637,190.712 81.517 C 192.168 84.051,192.467 84.474,192.991 84.745 C 193.626 85.074,195.043 85.072,195.681 84.743 C 196.139 84.506,197.783 82.227,197.616 82.060 C 197.577 82.021,197.241 82.498,196.871 83.119 C 195.379 85.623,193.285 85.547,191.736 82.933 C 190.160 80.273,189.785 79.667,189.716 79.667 C 189.678 79.667,189.680 79.723,189.720 79.792 M198.014 81.097 C 197.815 81.434,197.684 81.740,197.723 81.778 C 197.761 81.816,197.954 81.572,198.153 81.236 C 198.351 80.900,198.482 80.593,198.444 80.555 C 198.406 80.517,198.212 80.761,198.014 81.097 M319.333 80.859 C 319.333 80.965,319.140 81.321,318.905 81.651 L 318.476 82.250 318.988 81.673 C 319.442 81.162,319.652 80.667,319.417 80.667 C 319.371 80.667,319.333 80.753,319.333 80.859 M65.855 81.250 C 65.846 81.525,65.951 82.087,66.089 82.500 C 66.364 83.321,66.333 82.850,66.018 81.417 C 65.886 80.818,65.870 80.801,65.855 81.250 M332.332 81.375 C 330.736 83.553,328.414 85.817,326.338 87.221 C 326.111 87.375,326.002 87.500,326.095 87.500 C 326.816 87.500,331.858 82.621,332.684 81.125 C 332.940 80.661,332.764 80.786,332.332 81.375 M298.362 82.792 C 299.655 84.384,299.687 84.416,300.917 85.406 C 301.836 86.146,301.525 85.808,300.214 84.645 C 299.920 84.383,299.182 83.569,298.574 82.835 C 297.967 82.101,297.435 81.500,297.391 81.500 C 297.348 81.500,297.784 82.081,298.362 82.792 M71.470 82.875 C 70.034 85.208,68.211 85.537,66.615 83.754 C 66.322 83.426,66.321 83.429,66.587 83.867 C 67.850 85.945,70.275 85.303,71.910 82.458 C 72.618 81.226,72.300 81.528,71.470 82.875 M311.000 81.969 C 311.000 82.048,311.188 82.199,311.417 82.303 C 311.646 82.407,311.833 82.466,311.833 82.432 C 311.833 82.399,311.646 82.249,311.417 82.099 C 311.188 81.949,311.000 81.890,311.000 81.969 M90.860 82.757 C 91.051 83.082,91.244 83.311,91.289 83.267 C 91.368 83.187,90.708 82.167,90.578 82.167 C 90.541 82.167,90.668 82.432,90.860 82.757 M96.353 82.611 C 96.342 82.718,96.285 82.943,96.225 83.111 C 96.142 83.348,96.164 83.374,96.324 83.226 C 96.438 83.121,96.495 82.896,96.452 82.726 C 96.408 82.556,96.363 82.504,96.353 82.611 M313.375 82.624 C 314.177 82.655,315.490 82.655,316.292 82.624 C 317.094 82.594,316.438 82.569,314.833 82.569 C 313.229 82.569,312.573 82.594,313.375 82.624 M91.587 83.867 C 92.196 84.868,93.899 85.321,94.967 84.766 C 95.510 84.483,96.262 83.707,96.125 83.570 C 96.071 83.516,95.947 83.621,95.849 83.804 C 95.128 85.152,92.824 85.138,91.631 83.779 C 91.314 83.417,91.314 83.417,91.587 83.867 M303.000 87.077 C 303.000 87.122,303.300 87.313,303.667 87.500 C 304.033 87.687,304.333 87.803,304.333 87.757 C 304.333 87.711,304.033 87.520,303.667 87.333 C 303.300 87.146,303.000 87.031,303.000 87.077 M304.667 88.009 C 305.101 88.304,305.833 88.678,305.833 88.604 C 305.833 88.512,304.683 87.833,304.532 87.836 C 304.469 87.837,304.529 87.915,304.667 88.009 M324.417 88.246 C 324.050 88.471,323.802 88.659,323.865 88.661 C 324.010 88.668,325.167 87.991,325.167 87.900 C 325.167 87.792,325.115 87.815,324.417 88.246 M322.083 89.256 C 321.410 89.564,321.813 89.565,322.523 89.257 C 322.831 89.123,322.971 89.016,322.833 89.020 C 322.696 89.024,322.358 89.130,322.083 89.256 M310.627 90.285 C 310.834 90.324,311.134 90.323,311.294 90.281 C 311.453 90.239,311.283 90.207,310.917 90.209 C 310.550 90.211,310.420 90.245,310.627 90.285 M318.542 90.282 C 318.702 90.323,318.965 90.323,319.125 90.282 C 319.285 90.240,319.154 90.205,318.833 90.205 C 318.512 90.205,318.381 90.240,318.542 90.282 M312.583 90.510 C 312.950 90.585,313.438 90.643,313.667 90.637 C 314.328 90.621,313.235 90.373,312.500 90.372 L 311.917 90.372 312.583 90.510 M316.083 90.500 C 315.347 90.687,316.186 90.695,317.083 90.510 L 317.750 90.372 317.167 90.372 C 316.846 90.373,316.358 90.430,316.083 90.500 " stroke="none" fill="#8c8c8c" fill-rule="evenodd"></path><path id="path3" d="M178.875 53.953 C 179.127 53.991,179.540 53.991,179.792 53.953 C 180.044 53.915,179.838 53.883,179.333 53.883 C 178.829 53.883,178.623 53.915,178.875 53.953 M208.961 53.954 C 209.261 53.991,209.711 53.990,209.961 53.952 C 210.212 53.914,209.967 53.884,209.417 53.885 C 208.867 53.886,208.662 53.917,208.961 53.954 M62.466 54.291 C 63.227 54.322,64.427 54.322,65.133 54.290 C 65.839 54.259,65.217 54.234,63.750 54.234 C 62.283 54.234,61.706 54.260,62.466 54.291 M97.542 54.291 C 98.252 54.322,99.415 54.322,100.125 54.291 C 100.835 54.259,100.254 54.234,98.833 54.234 C 97.412 54.234,96.831 54.259,97.542 54.291 M123.125 54.291 C 125.073 54.318,128.260 54.318,130.208 54.291 C 132.156 54.265,130.563 54.243,126.667 54.243 C 122.771 54.243,121.177 54.265,123.125 54.291 M142.542 54.291 C 143.252 54.322,144.415 54.322,145.125 54.291 C 145.835 54.259,145.254 54.234,143.833 54.234 C 142.412 54.234,141.831 54.259,142.542 54.291 M167.542 54.291 C 168.252 54.322,169.415 54.322,170.125 54.291 C 170.835 54.259,170.254 54.234,168.833 54.234 C 167.412 54.234,166.831 54.259,167.542 54.291 M235.625 54.291 C 237.573 54.318,240.760 54.318,242.708 54.291 C 244.656 54.265,243.063 54.243,239.167 54.243 C 235.271 54.243,233.677 54.265,235.625 54.291 M254.384 54.291 C 255.374 54.321,256.949 54.321,257.884 54.291 C 258.819 54.261,258.008 54.237,256.083 54.237 C 254.158 54.237,253.394 54.262,254.384 54.291 M280.217 54.291 C 281.208 54.321,282.783 54.321,283.717 54.291 C 284.652 54.261,283.842 54.237,281.917 54.237 C 279.992 54.237,279.227 54.262,280.217 54.291 M166.074 59.667 C 166.074 62.554,166.097 63.735,166.125 62.292 C 166.152 60.848,166.152 58.485,166.125 57.042 C 166.097 55.598,166.074 56.779,166.074 59.667 M212.000 70.283 C 211.954 78.185,211.973 84.593,212.043 84.524 C 212.112 84.455,212.149 77.990,212.126 70.157 L 212.083 55.917 212.000 70.283 M243.075 65.750 C 243.075 68.775,243.097 70.036,243.125 68.552 C 243.152 67.068,243.152 64.593,243.125 63.052 C 243.097 61.511,243.075 62.725,243.075 65.750 M141.042 65.083 C 141.044 65.450,141.078 65.580,141.118 65.373 C 141.158 65.166,141.156 64.866,141.115 64.706 C 141.073 64.547,141.040 64.717,141.042 65.083 M206.292 67.277 C 206.455 67.343,206.500 69.229,206.500 75.921 C 206.500 80.629,206.556 84.515,206.625 84.558 C 206.694 84.600,206.730 80.705,206.705 75.901 C 206.664 67.738,206.642 67.168,206.372 67.180 C 206.198 67.188,206.166 67.226,206.292 67.277 M293.553 69.500 C 293.553 70.096,293.584 70.340,293.621 70.042 C 293.658 69.744,293.658 69.256,293.621 68.958 C 293.584 68.660,293.553 68.904,293.553 69.500 M153.386 69.125 C 154.927 69.152,157.402 69.152,158.886 69.125 C 160.369 69.097,159.108 69.075,156.083 69.075 C 153.058 69.075,151.844 69.097,153.386 69.125 M143.333 71.219 C 143.333 71.248,143.577 71.491,143.875 71.760 L 144.417 72.250 143.927 71.708 C 143.471 71.203,143.333 71.090,143.333 71.219 M243.034 80.948 C 243.015 82.891,243.056 84.515,243.125 84.558 C 243.194 84.601,243.231 83.574,243.207 82.276 C 243.126 77.861,243.067 77.410,243.034 80.948 " stroke="none" fill="#848484" fill-rule="evenodd"></path><path id="path4" d="M312.083 48.178 C 310.475 48.398,310.310 48.528,311.833 48.375 C 313.408 48.218,316.392 48.214,317.917 48.368 C 318.814 48.458,318.929 48.449,318.417 48.327 C 317.422 48.090,313.417 47.996,312.083 48.178 M309.500 48.663 C 309.362 48.741,308.800 48.931,308.250 49.083 C 306.954 49.442,306.373 49.663,305.708 50.051 C 304.869 50.540,305.065 50.525,306.208 50.013 C 306.781 49.756,307.700 49.415,308.250 49.255 C 309.684 48.838,310.483 48.517,310.083 48.518 C 309.900 48.519,309.637 48.584,309.500 48.663 M320.417 48.925 C 321.058 49.144,321.696 49.320,321.833 49.315 C 321.971 49.311,321.558 49.128,320.917 48.908 C 320.275 48.689,319.637 48.514,319.500 48.518 C 319.362 48.523,319.775 48.706,320.417 48.925 M322.500 49.538 C 322.729 49.638,323.135 49.821,323.402 49.944 C 323.669 50.067,323.923 50.132,323.967 50.088 C 324.063 49.992,322.555 49.329,322.278 49.345 C 322.171 49.351,322.271 49.438,322.500 49.538 M324.258 50.314 C 324.345 50.396,324.942 50.745,325.583 51.091 C 327.604 52.180,329.801 54.064,331.503 56.167 C 332.450 57.337,332.463 57.353,332.766 57.750 C 332.906 57.933,332.995 57.982,332.963 57.858 C 332.671 56.718,327.849 52.070,325.917 51.065 C 325.458 50.826,324.917 50.527,324.714 50.399 C 324.302 50.140,324.014 50.086,324.258 50.314 M304.290 50.819 C 303.624 51.246,303.501 51.419,304.083 51.111 C 304.782 50.740,305.113 50.503,304.917 50.515 C 304.825 50.520,304.543 50.657,304.290 50.819 M301.492 52.737 C 299.865 54.048,298.724 55.212,297.597 56.708 C 296.652 57.964,297.349 57.289,298.588 55.750 C 299.288 54.879,299.911 54.166,299.972 54.166 C 300.033 54.165,300.309 53.959,300.584 53.708 C 301.260 53.090,302.627 51.983,303.154 51.626 C 303.390 51.466,303.505 51.335,303.409 51.334 C 303.313 51.334,302.451 51.965,301.492 52.737 M178.958 53.784 C 179.165 53.824,179.502 53.824,179.708 53.784 C 179.915 53.745,179.746 53.712,179.333 53.712 C 178.921 53.712,178.752 53.745,178.958 53.784 M208.958 53.784 C 209.165 53.824,209.502 53.824,209.708 53.784 C 209.915 53.745,209.746 53.712,209.333 53.712 C 208.921 53.712,208.752 53.745,208.958 53.784 M177.505 54.271 C 176.259 55.319,176.333 54.318,176.333 70.146 C 176.333 77.934,176.379 84.425,176.434 84.570 C 176.623 85.060,182.132 84.954,182.248 84.458 C 182.387 83.866,182.431 67.002,182.293 67.140 C 182.225 67.208,182.150 71.161,182.127 75.923 L 182.083 84.583 179.333 84.583 L 176.583 84.583 176.540 70.417 C 176.507 59.795,176.546 56.125,176.694 55.750 C 177.017 54.932,177.456 54.397,178.036 54.111 C 178.340 53.961,178.459 53.839,178.304 53.837 C 178.151 53.835,177.792 54.030,177.505 54.271 M180.333 53.954 C 181.001 54.204,181.551 54.792,182.217 55.965 C 182.619 56.672,183.334 57.917,183.807 58.732 C 184.280 59.547,184.667 60.238,184.667 60.267 C 184.667 60.296,184.966 60.792,185.332 61.368 C 185.698 61.945,185.998 62.359,185.998 62.288 C 185.999 62.218,185.813 61.863,185.583 61.500 C 185.354 61.137,185.167 60.808,185.167 60.769 C 185.167 60.708,183.458 57.733,183.001 57.000 C 182.916 56.862,182.674 56.415,182.465 56.006 C 181.971 55.042,180.813 53.830,180.404 53.846 C 180.166 53.856,180.148 53.884,180.333 53.954 M207.662 54.120 C 207.162 54.467,206.678 55.023,206.677 55.250 C 206.676 55.342,206.880 55.176,207.129 54.881 C 207.379 54.586,207.808 54.231,208.083 54.090 C 208.358 53.950,208.469 53.835,208.329 53.834 C 208.189 53.834,207.889 53.962,207.662 54.120 M210.851 54.237 C 211.475 54.662,211.906 55.210,212.045 55.757 C 212.118 56.043,212.130 56.037,212.147 55.705 C 212.170 55.262,210.930 53.833,210.523 53.833 C 210.368 53.833,210.505 54.002,210.851 54.237 M60.891 54.258 C 60.765 54.585,60.813 54.910,61.679 59.583 C 61.764 60.042,61.908 60.867,61.998 61.417 C 62.209 62.698,62.547 63.785,62.413 62.750 C 62.365 62.383,62.216 61.483,62.081 60.750 C 61.243 56.201,61.103 55.358,61.094 54.833 L 61.083 54.250 63.859 54.250 C 65.386 54.250,66.600 54.194,66.558 54.125 C 66.390 53.854,60.997 53.981,60.891 54.258 M95.958 54.180 C 95.770 54.290,95.672 54.539,95.682 54.883 L 95.697 55.417 95.853 54.877 C 96.053 54.182,96.236 54.144,99.083 54.202 L 101.417 54.250 101.505 54.917 L 101.594 55.583 101.694 55.000 C 101.749 54.679,101.719 54.323,101.627 54.208 C 101.417 53.948,96.400 53.923,95.958 54.180 M118.500 54.170 C 116.893 54.334,115.377 54.770,113.629 55.570 C 112.737 55.978,112.280 56.333,112.647 56.333 C 112.739 56.333,112.856 56.265,112.907 56.182 C 113.048 55.954,115.252 55.071,116.754 54.642 C 118.054 54.270,118.259 54.261,126.179 54.256 L 134.275 54.250 134.864 54.699 C 136.071 55.619,136.007 54.691,135.959 70.444 L 135.917 84.583 133.250 84.583 L 130.583 84.583 130.538 81.008 C 130.505 78.402,130.438 77.397,130.288 77.302 C 130.176 77.230,125.883 77.172,120.750 77.172 C 115.617 77.172,111.324 77.230,111.212 77.302 C 111.062 77.397,110.995 78.402,110.962 81.008 L 110.917 84.583 108.250 84.583 L 105.583 84.583 105.497 75.917 L 105.411 67.250 105.414 76.000 L 105.417 84.750 108.250 84.750 L 111.083 84.750 111.167 81.083 L 111.250 77.417 120.750 77.417 L 130.250 77.417 130.333 81.083 L 130.417 84.750 133.200 84.796 C 135.842 84.839,135.993 84.824,136.163 84.506 C 136.288 84.273,136.328 79.961,136.296 70.294 C 136.244 54.633,136.340 55.732,134.931 54.592 L 134.303 54.083 127.026 54.063 C 123.024 54.052,119.188 54.100,118.500 54.170 M141.013 54.235 C 140.608 54.723,140.855 66.530,141.297 67.807 C 142.143 70.254,143.734 72.202,145.852 73.387 C 147.329 74.213,147.537 74.171,146.107 73.335 C 144.057 72.137,143.179 71.251,142.140 69.333 C 141.136 67.482,141.110 67.272,141.038 60.548 L 140.972 54.347 141.361 54.250 C 141.575 54.197,142.800 54.176,144.083 54.202 L 146.417 54.250 146.505 59.667 L 146.593 65.083 146.588 59.583 L 146.583 54.083 143.899 54.038 C 141.710 54.000,141.177 54.037,141.013 54.235 M166.037 54.205 C 165.922 54.344,165.841 56.464,165.804 60.251 L 165.748 66.083 165.268 66.846 C 164.112 68.682,163.401 68.833,155.922 68.833 C 148.430 68.833,147.566 68.522,146.905 65.583 C 146.843 65.308,146.756 65.183,146.711 65.304 C 146.582 65.657,147.162 66.983,147.728 67.627 C 148.894 68.956,149.140 68.997,156.000 68.997 C 162.969 68.996,163.824 68.867,164.939 67.641 C 165.910 66.573,165.912 66.558,165.970 60.303 C 166.011 55.777,166.071 54.482,166.242 54.340 C 166.385 54.221,167.326 54.174,168.939 54.204 L 171.417 54.250 171.468 60.167 C 171.524 66.715,171.481 67.123,170.529 69.165 C 169.414 71.556,166.897 73.583,164.083 74.357 C 163.597 74.490,163.599 74.492,164.167 74.431 C 166.245 74.206,169.390 71.816,170.545 69.583 C 171.643 67.460,171.684 67.111,171.631 60.250 L 171.583 54.083 168.899 54.038 C 166.876 54.003,166.171 54.045,166.037 54.205 M231.000 54.169 C 230.313 54.241,229.563 54.383,229.333 54.486 C 228.928 54.669,228.930 54.671,229.417 54.580 C 231.154 54.256,233.955 54.155,239.979 54.200 L 246.776 54.250 247.388 54.717 C 248.572 55.620,248.500 54.607,248.500 70.413 L 248.500 84.675 245.792 84.629 L 243.083 84.583 243.038 81.008 C 243.005 78.402,242.938 77.397,242.788 77.302 C 242.429 77.074,223.930 77.136,223.700 77.367 C 223.557 77.510,223.500 78.579,223.500 81.121 L 223.500 84.675 220.792 84.629 L 218.083 84.583 218.083 75.718 C 218.083 70.842,218.026 67.006,217.957 67.195 C 217.887 67.383,217.850 71.410,217.874 76.144 L 217.917 84.750 220.750 84.750 L 223.583 84.750 223.667 81.083 L 223.750 77.417 233.250 77.417 L 242.750 77.417 242.833 81.083 L 242.917 84.750 245.750 84.750 L 248.583 84.750 248.626 70.371 C 248.674 54.099,248.786 55.406,247.258 54.406 C 246.721 54.055,233.888 53.868,231.000 54.169 M252.227 54.249 C 252.134 54.493,252.942 55.631,253.226 55.655 C 253.304 55.661,253.128 55.394,252.836 55.061 C 252.089 54.210,252.226 54.172,256.107 54.169 C 259.064 54.167,259.504 54.201,259.807 54.458 C 259.996 54.619,262.071 57.000,264.419 59.750 C 266.766 62.500,268.786 64.773,268.907 64.800 C 269.028 64.828,269.997 63.840,271.060 62.607 C 272.124 61.373,273.089 60.262,273.205 60.138 C 273.322 60.015,274.016 59.202,274.748 58.332 C 275.481 57.462,276.251 56.563,276.461 56.333 C 276.670 56.104,277.121 55.566,277.462 55.138 C 278.251 54.149,278.143 54.172,282.047 54.169 C 285.743 54.166,285.969 54.242,285.074 55.177 C 284.816 55.446,284.675 55.667,284.760 55.667 C 284.846 55.667,285.129 55.400,285.389 55.074 C 286.223 54.030,286.129 54.000,281.992 54.000 L 278.308 54.000 277.862 54.464 C 277.383 54.962,276.933 55.477,275.500 57.168 C 274.996 57.763,274.493 58.346,274.383 58.462 C 274.272 58.579,273.897 59.025,273.549 59.452 C 273.201 59.880,272.673 60.497,272.374 60.823 C 272.076 61.150,271.251 62.106,270.541 62.949 C 269.113 64.644,268.884 64.811,268.577 64.379 C 268.462 64.216,268.202 63.896,268.001 63.667 C 267.799 63.438,267.285 62.841,266.858 62.342 C 265.815 61.119,264.935 60.102,264.833 60.000 C 264.787 59.954,264.152 59.204,263.421 58.333 C 262.690 57.462,262.050 56.712,261.999 56.667 C 261.948 56.621,261.466 56.058,260.929 55.417 C 260.392 54.775,259.832 54.199,259.684 54.137 C 259.085 53.883,252.329 53.985,252.227 54.249 M66.770 55.167 C 66.829 55.579,66.934 56.217,67.002 56.583 L 67.125 57.250 67.138 56.667 C 67.146 56.346,67.041 55.708,66.906 55.250 L 66.661 54.417 66.770 55.167 M228.083 54.833 C 227.961 55.030,228.125 55.030,228.583 54.833 C 228.905 54.695,228.904 54.690,228.552 54.678 C 228.351 54.672,228.140 54.742,228.083 54.833 M226.625 55.353 C 225.777 55.782,225.833 55.893,226.708 55.520 C 227.098 55.354,227.529 55.175,227.667 55.122 C 227.843 55.055,227.818 55.028,227.583 55.031 C 227.400 55.034,226.969 55.179,226.625 55.353 M206.386 55.708 C 206.091 56.167,205.831 56.719,205.884 56.773 C 205.915 56.804,206.109 56.530,206.314 56.165 C 206.653 55.562,206.709 55.206,206.386 55.708 M101.173 57.000 C 101.056 57.688,100.896 58.512,100.815 58.833 C 100.734 59.154,100.675 59.642,100.682 59.917 C 100.690 60.192,100.804 59.854,100.936 59.167 C 101.068 58.479,101.258 57.533,101.359 57.064 C 101.460 56.595,101.507 56.107,101.463 55.981 C 101.419 55.854,101.289 56.313,101.173 57.000 M224.583 56.475 C 222.528 57.788,220.687 59.806,219.603 61.936 C 218.810 63.497,218.832 63.749,219.631 62.250 C 220.953 59.772,222.536 58.008,224.667 56.637 C 225.354 56.195,225.842 55.834,225.750 55.835 C 225.658 55.836,225.133 56.124,224.583 56.475 M253.805 56.458 C 254.079 56.802,254.442 57.234,254.610 57.418 C 254.779 57.601,255.329 58.239,255.832 58.834 C 256.336 59.430,256.788 59.954,256.837 60.000 C 256.886 60.046,257.522 60.796,258.250 61.667 C 258.978 62.538,259.614 63.288,259.663 63.333 C 259.712 63.379,260.160 63.904,260.658 64.500 C 261.156 65.096,261.644 65.658,261.743 65.750 C 261.842 65.842,262.521 66.629,263.251 67.500 C 263.982 68.371,264.637 69.108,264.706 69.139 C 265.019 69.276,263.559 71.449,262.671 72.167 C 262.614 72.212,261.643 73.337,260.513 74.667 C 259.382 75.996,258.260 77.308,258.019 77.583 C 257.777 77.858,256.681 79.133,255.582 80.417 C 254.484 81.700,253.446 82.900,253.275 83.083 C 251.642 84.843,251.652 84.849,256.166 84.795 L 259.892 84.750 260.972 83.500 C 261.565 82.813,262.442 81.800,262.920 81.250 C 263.398 80.700,264.005 79.988,264.270 79.667 C 264.684 79.163,265.328 78.422,265.917 77.768 C 266.008 77.667,266.496 77.096,267.000 76.501 C 267.504 75.905,268.085 75.231,268.292 75.002 C 268.498 74.774,268.667 74.530,268.667 74.460 C 268.667 74.158,269.148 74.374,269.500 74.833 C 269.711 75.108,269.962 75.333,270.058 75.333 C 270.154 75.333,269.978 75.071,269.667 74.750 C 268.889 73.948,268.988 73.888,266.724 76.542 C 265.609 77.848,264.559 79.076,264.390 79.270 C 264.221 79.464,263.114 80.758,261.929 82.145 L 259.774 84.667 256.137 84.667 C 252.213 84.667,252.167 84.655,252.881 83.817 C 253.517 83.069,257.355 78.608,257.813 78.083 C 261.775 73.542,264.917 69.750,264.917 69.506 C 264.917 69.244,262.288 66.091,254.945 57.546 C 253.516 55.883,252.796 55.196,253.805 56.458 M283.978 56.458 C 283.654 56.802,281.786 58.958,279.827 61.250 C 277.868 63.542,276.224 65.454,276.173 65.500 C 276.123 65.546,275.669 66.071,275.166 66.667 C 274.662 67.262,274.040 67.975,273.782 68.250 C 272.581 69.534,272.407 69.159,276.246 73.583 C 276.723 74.133,278.078 75.708,279.257 77.083 C 280.436 78.458,282.327 80.652,283.459 81.959 C 284.592 83.266,285.473 84.410,285.416 84.501 C 285.353 84.602,283.936 84.667,281.755 84.667 L 278.195 84.667 276.806 83.042 C 276.042 82.149,275.221 81.192,274.981 80.917 C 274.741 80.642,273.869 79.629,273.043 78.667 C 271.472 76.837,270.125 75.373,270.425 75.821 C 270.567 76.033,272.209 77.976,272.917 78.770 C 273.008 78.872,273.421 79.358,273.833 79.849 C 275.495 81.827,277.908 84.591,278.074 84.706 C 278.171 84.773,279.919 84.829,281.958 84.831 C 286.102 84.834,286.183 84.806,285.203 83.733 C 284.948 83.454,284.144 82.519,283.416 81.655 C 282.689 80.790,282.053 80.046,282.004 80.000 C 281.955 79.954,281.503 79.429,281.001 78.833 C 280.498 78.237,279.336 76.889,278.418 75.837 C 277.501 74.785,276.590 73.735,276.394 73.504 C 276.199 73.272,275.392 72.333,274.603 71.417 C 273.045 69.608,272.981 69.453,273.542 68.829 C 273.955 68.369,275.851 66.163,276.488 65.401 C 276.711 65.135,277.573 64.131,278.405 63.171 C 279.236 62.210,280.113 61.198,280.352 60.921 C 280.592 60.643,281.490 59.592,282.349 58.583 C 283.208 57.575,283.949 56.712,283.997 56.667 C 284.044 56.621,284.226 56.415,284.401 56.208 C 284.912 55.605,284.621 55.777,283.978 56.458 M95.435 56.279 C 95.314 56.661,95.002 58.534,94.912 59.417 C 94.875 59.783,94.957 59.558,95.095 58.917 C 95.232 58.275,95.426 57.389,95.524 56.948 C 95.697 56.173,95.629 55.663,95.435 56.279 M212.166 70.333 L 212.083 84.583 209.333 84.583 L 206.583 84.583 206.540 75.958 C 206.506 69.222,206.452 67.335,206.290 67.339 C 206.176 67.342,205.633 68.143,205.083 69.120 C 204.533 70.096,203.869 71.275,203.607 71.739 C 203.345 72.204,202.943 72.921,202.713 73.333 C 202.484 73.746,202.102 74.416,201.864 74.822 C 201.627 75.229,201.518 75.509,201.622 75.444 C 201.727 75.380,201.920 75.122,202.051 74.872 C 202.607 73.815,203.157 72.842,203.565 72.196 C 203.804 71.817,204.000 71.474,204.000 71.434 C 204.000 71.393,204.450 70.598,205.000 69.667 C 205.550 68.735,206.000 67.904,206.000 67.820 C 206.000 67.736,206.074 67.667,206.165 67.667 C 206.272 67.667,206.346 70.706,206.373 76.208 L 206.417 84.750 209.288 84.796 C 212.153 84.841,212.159 84.840,212.250 84.462 C 212.300 84.254,212.321 77.783,212.295 70.083 L 212.249 56.083 212.166 70.333 M111.565 56.765 C 109.275 58.291,106.822 61.648,106.034 64.333 C 105.940 64.654,105.782 65.184,105.682 65.512 C 105.582 65.839,105.506 66.364,105.513 66.678 C 105.522 67.081,105.615 66.855,105.829 65.917 C 106.672 62.211,108.408 59.387,111.083 57.367 C 112.607 56.217,112.858 55.904,111.565 56.765 M311.743 56.647 C 311.373 56.815,310.941 57.148,310.785 57.387 C 310.361 58.034,310.440 58.096,310.937 57.507 C 311.651 56.657,312.262 56.500,314.850 56.500 C 317.884 56.500,318.872 56.896,319.211 58.250 C 319.285 58.546,319.297 58.549,319.314 58.276 C 319.345 57.780,318.670 56.986,317.933 56.651 C 316.940 56.200,312.733 56.197,311.743 56.647 M205.247 57.625 C 205.066 57.969,204.484 58.991,203.954 59.898 C 203.423 60.804,203.019 61.575,203.055 61.611 C 203.121 61.676,204.333 59.725,204.333 59.555 C 204.333 59.507,204.473 59.269,204.643 59.026 C 205.166 58.278,205.834 57.000,205.701 57.000 C 205.632 57.000,205.428 57.281,205.247 57.625 M67.238 57.833 C 67.304 58.154,67.421 58.792,67.499 59.250 C 67.789 60.965,67.995 62.121,68.241 63.417 C 68.381 64.150,68.570 65.237,68.662 65.833 C 68.867 67.156,69.220 68.345,69.083 67.250 C 68.973 66.375,68.750 65.078,68.410 63.333 C 68.258 62.554,68.071 61.542,67.995 61.083 C 67.616 58.796,67.343 57.455,67.237 57.358 C 67.172 57.298,67.173 57.512,67.238 57.833 M296.425 58.459 C 296.154 58.986,295.766 59.687,295.563 60.018 C 295.164 60.665,294.326 62.956,294.345 63.346 C 294.351 63.476,294.564 62.977,294.817 62.236 C 295.070 61.495,295.506 60.483,295.785 59.986 C 296.904 57.997,297.155 57.500,297.038 57.500 C 296.971 57.501,296.695 57.932,296.425 58.459 M310.331 61.417 L 310.250 64.750 307.250 64.839 L 304.250 64.928 307.297 64.964 C 309.645 64.992,310.363 64.951,310.426 64.787 C 310.471 64.669,310.486 63.113,310.460 61.328 L 310.413 58.083 310.331 61.417 M333.005 58.185 C 333.002 58.242,333.369 58.954,333.820 59.769 C 334.271 60.583,334.808 61.832,335.013 62.543 C 335.218 63.255,335.422 63.800,335.467 63.755 C 335.621 63.601,334.794 61.249,334.140 59.981 C 333.507 58.752,333.016 57.976,333.005 58.185 M319.411 61.875 L 319.417 64.917 322.500 64.923 L 325.583 64.929 322.545 64.877 L 319.507 64.826 319.456 61.829 L 319.405 58.833 319.411 61.875 M80.877 59.120 C 81.131 59.158,81.506 59.157,81.711 59.117 C 81.916 59.078,81.708 59.046,81.250 59.048 C 80.792 59.049,80.624 59.081,80.877 59.120 M79.454 59.591 C 79.049 59.997,78.243 61.148,77.361 62.583 C 77.135 62.950,76.737 63.571,76.475 63.963 C 76.214 64.355,76.000 64.717,76.000 64.766 C 76.000 64.815,75.813 65.101,75.583 65.402 C 75.354 65.702,75.167 66.004,75.167 66.073 C 75.167 66.142,74.998 66.434,74.792 66.721 C 74.585 67.008,74.342 67.372,74.250 67.529 C 74.088 67.806,72.883 69.739,72.034 71.083 C 71.802 71.450,71.400 72.062,71.140 72.444 C 70.880 72.826,70.667 73.219,70.667 73.319 C 70.667 73.599,70.370 73.533,70.170 73.208 C 70.014 72.954,69.997 72.969,70.037 73.320 C 70.167 74.456,70.061 74.602,75.743 65.529 C 78.337 61.388,79.373 59.871,79.816 59.570 C 80.159 59.338,80.298 59.167,80.145 59.167 C 79.998 59.167,79.688 59.358,79.454 59.591 M82.583 59.477 C 83.377 59.967,83.513 60.164,87.934 67.218 C 92.317 74.210,92.338 74.237,92.545 73.216 C 92.825 71.831,92.826 71.070,92.546 72.292 C 92.394 72.956,92.222 73.500,92.165 73.500 C 92.107 73.500,90.154 70.453,87.824 66.728 C 83.812 60.315,82.974 59.166,82.318 59.167 C 82.189 59.168,82.308 59.307,82.583 59.477 M119.167 59.921 C 117.881 60.141,116.169 60.708,115.588 61.108 C 115.118 61.430,115.389 61.386,116.210 61.007 C 118.213 60.082,118.165 60.087,124.417 60.085 L 130.250 60.083 130.294 65.655 C 130.328 70.002,130.292 71.257,130.127 71.361 C 129.678 71.647,111.563 71.526,111.322 71.236 C 111.144 71.022,111.138 70.559,111.291 68.778 C 111.568 65.550,112.242 64.046,114.228 62.218 C 115.231 61.296,115.235 61.289,114.437 61.848 C 112.212 63.405,111.001 66.263,111.000 69.955 C 111.000 71.881,109.819 71.685,121.083 71.629 L 130.417 71.583 130.460 65.728 L 130.504 59.873 130.127 59.772 C 129.404 59.578,120.460 59.700,119.167 59.921 M231.750 59.918 C 229.660 60.252,227.711 61.116,226.417 62.283 C 225.513 63.097,224.291 64.825,225.083 64.167 C 225.221 64.053,225.334 63.875,225.334 63.771 C 225.336 63.382,227.319 61.691,228.351 61.198 C 230.745 60.057,230.512 60.087,236.917 60.085 L 242.750 60.083 242.794 65.705 L 242.838 71.326 242.461 71.417 C 242.253 71.468,237.958 71.488,232.917 71.463 L 223.750 71.417 223.754 69.833 C 223.756 68.962,223.812 67.837,223.878 67.333 C 223.974 66.606,223.964 66.520,223.828 66.917 C 223.609 67.559,223.419 70.653,223.563 71.227 L 223.673 71.667 233.137 71.667 C 240.275 71.667,242.649 71.618,242.800 71.467 C 243.086 71.180,243.086 60.153,242.800 59.867 C 242.519 59.586,233.569 59.627,231.750 59.918 M94.602 60.779 C 94.461 61.231,94.137 63.308,94.074 64.167 C 94.013 64.994,94.084 64.758,94.349 63.250 C 94.446 62.700,94.603 61.890,94.698 61.449 C 94.866 60.672,94.793 60.166,94.602 60.779 M100.437 61.083 C 100.373 61.450,100.205 62.425,100.065 63.250 C 99.925 64.075,99.740 65.021,99.655 65.353 C 99.570 65.684,99.506 66.134,99.514 66.353 C 99.535 66.928,99.778 66.074,99.993 64.667 C 100.084 64.071,100.275 62.953,100.418 62.182 C 100.560 61.411,100.649 60.699,100.615 60.599 C 100.582 60.499,100.501 60.717,100.437 61.083 M202.293 62.789 C 201.969 63.318,201.543 64.036,201.349 64.385 C 201.154 64.734,200.686 65.559,200.310 66.218 C 199.933 66.877,199.437 67.754,199.207 68.167 C 198.977 68.579,198.713 69.012,198.621 69.129 C 198.528 69.246,198.493 69.382,198.543 69.432 C 198.592 69.481,199.008 68.861,199.465 68.053 C 201.111 65.147,202.705 62.413,202.875 62.204 C 202.970 62.088,203.011 61.955,202.966 61.910 C 202.921 61.865,202.618 62.261,202.293 62.789 M186.146 62.794 C 186.232 62.956,186.760 63.862,187.318 64.808 C 187.877 65.753,188.333 66.562,188.333 66.605 C 188.333 66.648,188.596 67.093,188.917 67.595 C 189.237 68.096,189.500 68.541,189.500 68.584 C 189.500 68.626,189.800 69.151,190.167 69.750 C 190.533 70.349,190.833 70.869,190.833 70.906 C 190.833 70.943,191.283 71.735,191.833 72.667 C 192.383 73.598,192.833 74.391,192.833 74.429 C 192.833 74.982,194.321 76.790,194.559 76.527 C 194.710 76.360,194.833 76.172,194.833 76.109 C 194.833 76.045,195.009 75.714,195.224 75.372 C 195.438 75.030,195.802 74.412,196.033 74.000 C 196.264 73.587,196.885 72.500,197.414 71.583 C 197.942 70.667,198.417 69.842,198.469 69.750 C 198.521 69.658,198.437 69.686,198.282 69.812 C 198.127 69.938,198.000 70.105,198.000 70.184 C 198.000 70.263,197.737 70.737,197.417 71.239 C 197.096 71.740,196.833 72.186,196.833 72.228 C 196.833 72.326,194.677 76.010,194.453 76.295 C 194.258 76.544,194.166 76.431,193.330 74.917 C 193.026 74.367,192.453 73.367,192.055 72.695 C 191.658 72.022,191.333 71.438,191.333 71.395 C 191.333 71.352,191.082 70.924,190.775 70.444 C 190.467 69.964,189.988 69.161,189.710 68.660 C 189.431 68.160,188.989 67.374,188.727 66.913 C 188.464 66.453,187.800 65.274,187.250 64.294 C 186.700 63.313,186.191 62.508,186.119 62.505 C 186.047 62.502,186.059 62.632,186.146 62.794 M218.712 63.953 C 218.311 65.076,218.168 65.634,218.186 66.012 C 218.202 66.348,218.218 66.360,218.279 66.083 C 218.320 65.900,218.503 65.273,218.685 64.689 C 219.012 63.642,219.034 63.053,218.712 63.953 M62.581 64.250 C 62.704 65.438,62.987 67.071,63.160 67.583 L 63.328 68.083 63.263 67.500 C 63.164 66.604,62.846 64.816,62.670 64.167 L 62.512 63.583 62.581 64.250 M294.025 64.197 C 293.719 65.166,293.499 66.699,293.528 67.656 C 293.550 68.377,293.568 68.435,293.610 67.917 C 293.713 66.635,294.019 64.746,294.198 64.286 C 294.297 64.031,294.338 63.783,294.289 63.733 C 294.240 63.684,294.121 63.893,294.025 64.197 M224.332 65.252 C 224.144 65.692,224.015 66.128,224.046 66.221 C 224.077 66.315,224.198 66.134,224.315 65.820 C 224.432 65.507,224.602 65.111,224.692 64.942 C 224.782 64.773,224.816 64.593,224.766 64.544 C 224.716 64.494,224.521 64.813,224.332 65.252 M93.678 65.945 C 93.576 66.479,93.416 67.367,93.322 67.917 C 93.228 68.467,93.070 69.300,92.971 69.769 C 92.872 70.238,92.826 70.726,92.868 70.853 C 92.911 70.980,93.038 70.558,93.152 69.917 C 93.542 67.705,93.686 66.914,93.858 66.029 C 93.952 65.540,93.992 65.103,93.946 65.057 C 93.900 65.011,93.779 65.411,93.678 65.945 M302.787 65.356 C 301.927 65.998,301.833 66.399,301.834 69.450 C 301.835 73.856,301.993 73.998,306.857 73.999 C 310.753 74.000,310.333 73.560,310.334 77.639 C 310.335 81.114,310.436 81.494,311.540 82.168 C 312.289 82.624,317.191 82.667,318.050 82.225 C 318.903 81.786,319.608 80.720,319.270 80.381 C 319.213 80.324,319.167 80.430,319.167 80.616 C 319.167 81.884,318.041 82.333,314.867 82.333 C 310.585 82.333,310.502 82.241,310.501 77.492 C 310.500 73.455,310.878 73.833,306.842 73.833 C 302.064 73.832,302.000 73.774,302.000 69.423 C 302.000 66.171,302.104 65.864,303.417 65.248 C 303.800 65.068,303.839 65.013,303.583 65.012 C 303.400 65.011,303.042 65.166,302.787 65.356 M326.167 65.120 C 327.501 65.621,327.726 66.200,327.839 69.417 L 327.933 72.083 327.966 69.536 C 328.007 66.425,327.432 64.955,326.196 65.013 C 325.967 65.024,325.961 65.043,326.167 65.120 M335.963 66.167 C 336.118 67.774,336.116 71.043,335.961 72.750 L 335.840 74.083 336.079 72.667 C 336.381 70.885,336.379 67.800,336.076 66.167 L 335.844 64.917 335.963 66.167 M99.358 67.167 C 99.342 67.396,99.287 67.771,99.236 68.000 C 99.157 68.359,99.170 68.376,99.332 68.121 C 99.436 67.959,99.490 67.584,99.454 67.288 C 99.402 66.869,99.380 66.843,99.358 67.167 M80.333 68.756 C 79.921 69.445,79.508 70.141,79.417 70.301 C 79.325 70.461,78.419 71.940,77.403 73.588 C 76.387 75.235,74.480 78.329,73.166 80.462 C 70.463 84.851,70.317 85.000,68.692 85.000 C 67.717 85.000,67.641 84.969,66.948 84.292 C 66.186 83.546,66.224 83.652,65.592 80.500 C 65.316 79.126,65.355 79.906,65.654 81.750 C 66.042 84.138,66.963 85.167,68.714 85.167 C 70.461 85.167,70.657 84.977,73.178 80.833 C 74.210 79.137,75.436 77.130,75.902 76.371 C 76.368 75.613,76.900 74.738,77.083 74.428 C 79.043 71.111,81.121 67.847,81.278 67.841 C 81.436 67.835,83.356 70.753,84.070 72.085 C 84.270 72.457,86.680 76.396,89.697 81.280 C 91.956 84.935,92.199 85.167,93.787 85.167 C 94.911 85.167,95.656 84.784,96.251 83.900 C 96.583 83.408,97.124 81.235,96.957 81.068 C 96.911 81.022,96.778 81.491,96.662 82.109 C 96.269 84.191,95.448 85.000,93.727 85.000 C 92.379 85.000,91.894 84.565,90.264 81.892 C 82.642 69.396,81.457 67.500,81.268 67.501 C 81.166 67.501,80.746 68.066,80.333 68.756 M182.500 67.587 C 182.500 67.634,182.688 67.970,182.917 68.333 C 183.146 68.696,183.333 69.040,183.333 69.096 C 183.333 69.152,183.473 69.398,183.643 69.641 C 183.813 69.884,184.201 70.533,184.504 71.083 C 185.549 72.981,185.894 73.591,187.107 75.697 C 187.778 76.859,188.485 78.096,188.681 78.447 C 188.876 78.797,189.093 79.158,189.162 79.250 C 189.232 79.342,189.536 79.867,189.838 80.417 C 190.141 80.967,190.533 81.679,190.711 82.000 C 192.250 84.778,192.697 85.167,194.353 85.166 C 195.978 85.165,196.410 84.820,197.696 82.500 C 197.925 82.087,198.362 81.300,198.667 80.750 C 198.972 80.200,199.547 79.200,199.945 78.528 C 200.342 77.856,200.667 77.273,200.667 77.233 C 200.667 77.193,200.860 76.854,201.095 76.481 C 201.331 76.107,201.488 75.766,201.445 75.722 C 201.401 75.679,200.934 76.417,200.407 77.363 C 199.880 78.309,198.991 79.871,198.432 80.833 C 197.873 81.796,197.265 82.871,197.083 83.223 C 195.725 85.836,192.823 85.673,191.417 82.905 C 191.235 82.545,190.778 81.725,190.404 81.083 C 190.029 80.442,189.528 79.567,189.290 79.140 C 189.051 78.713,188.301 77.400,187.623 76.223 C 186.944 75.046,186.201 73.746,185.970 73.333 C 183.735 69.333,182.500 67.288,182.500 67.587 M63.383 68.833 C 63.622 70.391,63.846 71.645,63.993 72.250 L 64.155 72.917 64.092 72.167 C 64.007 71.161,63.511 68.454,63.390 68.340 C 63.337 68.291,63.334 68.512,63.383 68.833 M69.245 68.833 C 69.415 70.014,69.677 71.432,69.830 72.000 L 69.988 72.583 69.928 71.917 C 69.825 70.772,69.517 69.071,69.335 68.651 C 69.181 68.295,69.171 68.316,69.245 68.833 M99.025 69.017 C 99.011 69.347,98.919 69.850,98.820 70.134 C 98.720 70.419,98.669 70.786,98.706 70.951 C 98.806 71.395,99.201 69.415,99.120 68.877 C 99.061 68.488,99.046 68.509,99.025 69.017 M293.527 71.367 C 293.491 72.644,294.055 75.160,294.874 77.380 C 295.295 78.523,295.113 77.551,294.597 75.903 C 294.086 74.273,293.772 72.717,293.609 71.000 C 293.575 70.648,293.543 70.793,293.527 71.367 M98.527 71.688 C 98.512 71.836,98.458 72.211,98.406 72.521 C 98.328 72.981,98.345 73.030,98.499 72.788 C 98.603 72.626,98.657 72.251,98.620 71.955 C 98.583 71.659,98.541 71.539,98.527 71.688 M327.517 72.538 C 327.430 72.768,327.109 73.153,326.804 73.393 C 326.190 73.877,326.275 73.988,326.931 73.559 C 327.366 73.274,327.926 72.371,327.767 72.211 C 327.717 72.161,327.604 72.309,327.517 72.538 M64.195 73.417 C 64.192 73.692,64.255 74.067,64.333 74.250 C 64.529 74.706,64.529 73.945,64.333 73.333 C 64.203 72.927,64.200 72.929,64.195 73.417 M98.135 73.833 C 97.816 75.940,97.814 75.985,98.085 75.083 C 98.222 74.625,98.315 73.987,98.292 73.667 C 98.251 73.102,98.246 73.107,98.135 73.833 M319.444 73.944 C 319.383 74.006,319.350 75.449,319.369 77.153 L 319.405 80.250 319.494 77.167 L 319.583 74.083 322.917 73.995 L 326.250 73.906 322.903 73.870 C 321.062 73.850,319.506 73.883,319.444 73.944 M147.579 74.184 C 148.154 74.546,149.192 74.714,151.289 74.784 L 153.328 74.852 153.373 79.801 L 153.417 84.750 156.292 84.796 C 157.873 84.821,159.183 84.821,159.202 84.796 C 159.221 84.771,159.278 82.537,159.327 79.833 L 159.417 74.917 161.362 74.833 C 162.432 74.787,163.351 74.706,163.404 74.652 C 163.512 74.544,160.132 74.639,159.544 74.761 L 159.172 74.838 159.128 79.711 L 159.083 84.583 156.333 84.583 L 153.583 84.583 153.500 79.667 L 153.417 74.750 151.333 74.642 C 150.188 74.582,148.987 74.456,148.667 74.362 C 147.382 73.982,147.214 73.955,147.579 74.184 M64.580 75.417 C 64.692 76.621,64.959 77.761,64.970 77.083 C 64.975 76.808,64.871 76.133,64.741 75.583 L 64.502 74.583 64.580 75.417 M335.208 75.649 C 334.925 76.573,334.957 76.879,335.263 76.173 C 335.401 75.855,335.492 75.455,335.465 75.283 C 335.435 75.087,335.339 75.224,335.208 75.649 M97.518 77.417 C 97.397 78.150,97.232 79.012,97.150 79.333 C 97.069 79.654,97.009 80.104,97.017 80.333 C 97.026 80.563,97.141 80.225,97.274 79.583 C 97.407 78.942,97.596 78.038,97.693 77.575 C 97.791 77.112,97.840 76.587,97.804 76.408 C 97.767 76.230,97.638 76.683,97.518 77.417 M333.856 79.024 C 332.155 82.406,328.651 86.229,325.954 87.644 C 325.567 87.847,324.811 88.240,324.275 88.518 C 323.738 88.795,323.336 89.058,323.380 89.102 C 323.425 89.147,323.713 89.042,324.022 88.869 C 324.331 88.696,325.033 88.308,325.583 88.006 C 326.490 87.509,327.621 86.753,327.833 86.502 C 327.879 86.448,328.378 86.046,328.941 85.608 C 329.864 84.890,331.370 83.236,332.528 81.667 C 333.253 80.684,335.066 77.250,334.971 77.037 C 334.941 76.970,334.439 77.864,333.856 79.024 M65.033 78.000 C 65.033 78.229,65.093 78.604,65.167 78.833 L 65.300 79.250 65.300 78.833 C 65.300 78.604,65.240 78.229,65.167 78.000 L 65.033 77.583 65.033 78.000 M295.167 78.062 C 295.167 78.097,295.348 78.453,295.570 78.854 C 295.791 79.255,296.198 79.996,296.474 80.499 C 297.943 83.184,304.104 88.951,304.781 88.275 C 304.844 88.211,304.251 87.839,303.333 87.367 C 301.347 86.343,297.754 82.463,296.241 79.708 C 295.420 78.211,295.167 77.824,295.167 78.062 M305.583 88.754 C 305.950 88.980,306.325 89.164,306.417 89.164 C 306.508 89.163,306.257 88.976,305.858 88.748 C 304.922 88.213,304.712 88.218,305.583 88.754 M306.667 89.236 C 306.667 89.332,308.772 90.002,309.035 89.989 C 309.153 89.984,308.688 89.796,308.000 89.573 C 306.631 89.128,306.667 89.137,306.667 89.236 M322.417 89.327 C 322.233 89.403,321.764 89.560,321.374 89.676 C 320.984 89.792,320.701 89.924,320.746 89.968 C 320.834 90.057,323.167 89.354,323.167 89.238 C 323.167 89.129,322.788 89.173,322.417 89.327 M309.603 90.154 C 309.838 90.409,311.314 90.647,313.250 90.741 L 314.750 90.813 313.417 90.666 C 311.544 90.458,310.141 90.234,309.750 90.081 C 309.493 89.981,309.460 89.998,309.603 90.154 M318.137 90.418 C 318.091 90.465,317.385 90.573,316.568 90.659 L 315.083 90.814 316.500 90.736 C 317.279 90.694,318.292 90.595,318.750 90.518 L 319.583 90.378 318.903 90.356 C 318.528 90.343,318.184 90.371,318.137 90.418 " stroke="none" fill="#616161" fill-rule="evenodd"></path></g></svg>